<?xml version="1.0" encoding="utf-8"?>
<!-- Generated by IcoMoon.io -->
<!DOCTYPE svg PUBLIC "-//W3C//DTD SVG 1.1//EN" "http://www.w3.org/Graphics/SVG/1.1/DTD/svg11.dtd">
<svg version="1.1" xmlns="http://www.w3.org/2000/svg" xmlns:xlink="http://www.w3.org/1999/xlink" width="32" height="32" viewBox="0 0 32 32">
<path d="M1 16c0 4.142 1.679 7.892 4.393 10.606 2.715 2.714 6.465 4.393 10.606 4.393s7.893-1.679 10.607-4.393c2.714-2.715 4.393-6.465 4.393-10.606s-1.679-7.892-4.394-10.606c-2.712-2.714-6.463-4.394-10.605-4.394-4.142 0-7.893 1.679-10.606 4.393s-4.394 6.466-4.394 10.607v0zM4.686 27.314c-2.895-2.895-4.686-6.895-4.686-11.314s1.791-8.419 4.686-11.314c2.895-2.895 6.895-4.686 11.314-4.686s8.42 1.792 11.314 4.686c2.896 2.896 4.686 6.895 4.686 11.314s-1.792 8.419-4.685 11.314c-2.895 2.895-6.896 4.686-11.315 4.686s-8.419-1.792-11.314-4.686z"></path>
<path d="M18.678 29.147c-0.269 0.054-0.532-0.122-0.585-0.391-0.054-0.269 0.122-0.532 0.391-0.585 2.858-0.579 5.363-2.143 7.141-4.321 1.746-2.138 2.794-4.872 2.794-7.85 0-3.429-1.39-6.533-3.636-8.78s-5.352-3.636-8.781-3.636-6.533 1.391-8.779 3.636c-2.247 2.247-3.636 5.351-3.636 8.78s1.391 6.533 3.636 8.779c2.246 2.247 5.351 3.636 8.779 3.636 0.276 0 0.5 0.224 0.5 0.5s-0.224 0.5-0.5 0.5c-3.705 0-7.059-1.502-9.486-3.929-2.428-2.427-3.93-5.781-3.93-9.486s1.502-7.059 3.929-9.487c2.428-2.428 5.781-3.929 9.486-3.929s7.059 1.502 9.488 3.929c2.428 2.428 3.929 5.782 3.929 9.487 0 3.214-1.132 6.167-3.020 8.478-1.921 2.353-4.627 4.043-7.718 4.669z"></path>
<path d="M16.5 19.229c0 0.276-0.224 0.5-0.5 0.5s-0.5-0.224-0.5-0.5v-10.978c0-0.276 0.224-0.5 0.5-0.5s0.5 0.224 0.5 0.5v10.978z"></path>
<path d="M12.771 16.5c-0.276 0-0.5-0.224-0.5-0.5s0.224-0.5 0.5-0.5h10.979c0.276 0 0.5 0.225 0.5 0.5 0 0.276-0.224 0.5-0.5 0.5h-10.979z"></path>
<path d="M5.022 15.5c0.276 0 0.5 0.225 0.5 0.5 0 0.276-0.224 0.5-0.5 0.5h-1.615c-0.276 0-0.5-0.224-0.5-0.5s0.224-0.5 0.5-0.5h1.615z"></path>
<path d="M28.594 15.5c0.276 0 0.5 0.225 0.5 0.5 0 0.276-0.224 0.5-0.5 0.5h-1.615c-0.276 0-0.5-0.224-0.5-0.5s0.224-0.5 0.5-0.5h1.615z"></path>
<path d="M15.5 26.979c0-0.276 0.224-0.5 0.5-0.5s0.5 0.224 0.5 0.5v1.938c0 0.276-0.224 0.5-0.5 0.5s-0.5-0.224-0.5-0.5v-1.938z"></path>
<path d="M15.5 3.406c0-0.276 0.224-0.5 0.5-0.5s0.5 0.224 0.5 0.5v1.615c0 0.276-0.224 0.5-0.5 0.5s-0.5-0.224-0.5-0.5v-1.615z"></path>
<path d="M7.883 23.409c0.195-0.195 0.513-0.195 0.707 0s0.195 0.513 0 0.707l-1.142 1.142c-0.195 0.195-0.513 0.195-0.707 0s-0.195-0.513 0-0.707l1.142-1.142z"></path>
<path d="M24.551 6.741c0.195-0.195 0.512-0.195 0.707 0s0.195 0.512 0 0.707l-1.142 1.142c-0.195 0.195-0.513 0.195-0.707 0s-0.195-0.513 0-0.707l1.142-1.142z"></path>
<path d="M8.591 7.882c0.195 0.195 0.195 0.512 0 0.707s-0.513 0.195-0.707 0l-1.142-1.141c-0.195-0.195-0.195-0.513 0-0.707s0.512-0.195 0.707 0l1.142 1.141z"></path>
<path d="M25.258 24.551c0.195 0.195 0.195 0.512 0 0.707s-0.513 0.195-0.707 0l-1.142-1.142c-0.195-0.195-0.195-0.513 0-0.707s0.513-0.195 0.707 0l1.142 1.142z"></path>
</svg>
