<?xml version="1.0" encoding="utf-8"?>
<!-- Generated by IcoMoon.io -->
<!DOCTYPE svg PUBLIC "-//W3C//DTD SVG 1.1//EN" "http://www.w3.org/Graphics/SVG/1.1/DTD/svg11.dtd">
<svg version="1.1" xmlns="http://www.w3.org/2000/svg" xmlns:xlink="http://www.w3.org/1999/xlink" width="32" height="32" viewBox="0 0 32 32">
<path d="M18.329 16.022l13.152-13.080c0.631-0.624 0.631-1.635 0-2.257-0.629-0.624-1.65-0.624-2.279 0l-13.14 13.069-13.262-13.263c-0.629-0.631-1.65-0.631-2.279 0-0.629 0.632-0.629 1.655 0 2.286l13.252 13.254-13.3 13.227c-0.629 0.624-0.629 1.635 0 2.257 0.629 0.624 1.65 0.624 2.279 0l13.289-13.215 13.209 13.211c0.629 0.631 1.65 0.631 2.279 0 0.629-0.632 0.629-1.655 0-2.286l-13.199-13.201z"></path>
</svg>
