<?xml version="1.0" encoding="utf-8"?>
<!-- Generated by IcoMoon.io -->
<!DOCTYPE svg PUBLIC "-//W3C//DTD SVG 1.1//EN" "http://www.w3.org/Graphics/SVG/1.1/DTD/svg11.dtd">
<svg version="1.1" xmlns="http://www.w3.org/2000/svg" xmlns:xlink="http://www.w3.org/1999/xlink" width="32" height="32" viewBox="0 0 32 32">
<path d="M25.909 22.195c-0.127 0-0.254-0.046-0.353-0.14l-5.937-5.57c-0.207-0.194-0.218-0.521-0.023-0.729 0.195-0.209 0.52-0.219 0.73-0.023l5.937 5.57c0.207 0.194 0.218 0.521 0.023 0.729-0.102 0.108-0.238 0.163-0.377 0.163z"></path>
<path d="M6.090 22.195c-0.137 0-0.274-0.055-0.377-0.163-0.195-0.207-0.185-0.535 0.023-0.729l5.939-5.57c0.208-0.194 0.536-0.186 0.73 0.023 0.195 0.207 0.185 0.535-0.023 0.729l-5.939 5.57c-0.099 0.094-0.226 0.14-0.353 0.14z"></path>
<path d="M29.42 27.374h-26.841c-1.422 0-2.58-1.157-2.58-2.58v-17.59c0-1.423 1.158-2.58 2.58-2.58h26.841c1.422 0 2.58 1.157 2.58 2.58v17.59c0 1.423-1.158 2.58-2.58 2.58zM2.58 5.657c-0.853 0-1.548 0.694-1.548 1.548v17.59c0 0.853 0.694 1.548 1.548 1.548h26.841c0.853 0 1.548-0.694 1.548-1.548v-17.59c0-0.853-0.694-1.548-1.548-1.548h-26.841z"></path>
<path d="M16 18.592c-0.686 0-1.372-0.228-1.895-0.683l-13.249-11.558c-0.215-0.187-0.237-0.513-0.051-0.729 0.189-0.215 0.514-0.234 0.729-0.050l13.249 11.557c0.659 0.575 1.774 0.575 2.432 0l13.233-11.538c0.214-0.187 0.539-0.166 0.729 0.050 0.187 0.216 0.165 0.541-0.050 0.729l-13.233 11.538c-0.523 0.456-1.208 0.684-1.895 0.684z"></path>
</svg>
