<?xml version="1.0" encoding="utf-8"?>
<!-- Generated by IcoMoon.io -->
<!DOCTYPE svg PUBLIC "-//W3C//DTD SVG 1.1//EN" "http://www.w3.org/Graphics/SVG/1.1/DTD/svg11.dtd">
<svg version="1.1" xmlns="http://www.w3.org/2000/svg" xmlns:xlink="http://www.w3.org/1999/xlink" width="32" height="32" viewBox="0 0 32 32">
<path d="M16 0c-5.782 0-10.487 4.701-10.487 10.48 0 5.554 9.53 20.581 9.936 21.218 0.12 0.188 0.328 0.302 0.551 0.302s0.431-0.114 0.551-0.302c0.406-0.637 9.936-15.664 9.936-21.218 0-5.779-4.704-10.48-10.487-10.48zM16 30.114c-0.863-1.395-2.613-4.283-4.346-7.483-3.163-5.84-4.834-10.041-4.834-12.151-0-5.058 4.118-9.174 9.18-9.174s9.18 4.115 9.18 9.174c0 2.11-1.672 6.312-4.834 12.151-1.733 3.2-3.484 6.088-4.346 7.483z"></path>
<path d="M16 4.968c-2.735 0-4.961 2.165-4.961 4.826s2.225 4.826 4.961 4.826 4.961-2.165 4.961-4.826c0-2.661-2.225-4.826-4.961-4.826zM16 13.313c-2.015 0-3.654-1.579-3.654-3.519s1.639-3.52 3.654-3.52 3.654 1.579 3.654 3.52c0 1.941-1.639 3.519-3.654 3.519z"></path>
</svg>
