<?xml version="1.0" encoding="utf-8"?>
<!-- Generated by IcoMoon.io -->
<!DOCTYPE svg PUBLIC "-//W3C//DTD SVG 1.1//EN" "http://www.w3.org/Graphics/SVG/1.1/DTD/svg11.dtd">
<svg version="1.1" xmlns="http://www.w3.org/2000/svg" xmlns:xlink="http://www.w3.org/1999/xlink" width="32" height="32" viewBox="0 0 32 32">
<path d="M16 0c-8.837 0-16 7.163-16 16 0 8.836 7.163 16 16 16 8.836 0 16-7.163 16-16s-7.164-16-16-16zM16 30c-7.732 0-14-6.268-14-14s6.268-14 14-14 14 6.268 14 14-6.268 14-14 14z"></path>
<path d="M22.729 21.271l-5.268-5.269 5.238-5.195c0.395-0.391 0.395-1.024 0-1.414-0.394-0.39-1.034-0.39-1.428 0l-5.231 5.188-5.309-5.31c-0.394-0.396-1.034-0.396-1.428 0-0.394 0.395-0.394 1.037 0 1.432l5.301 5.302-5.331 5.287c-0.394 0.391-0.394 1.024 0 1.414s1.034 0.391 1.429 0l5.324-5.28 5.276 5.276c0.394 0.396 1.034 0.396 1.428 0 0.393-0.394 0.393-1.035-0.001-1.431z"></path>
</svg>
