<svg width="512" height="512" xmlns="http://www.w3.org/2000/svg"><title>background</title><path fill="none" d="M-1-1h582v402H-1z"/><title>Layer 1</title><path fill-rule="evenodd" fill="#FAB31E" d="M257.568 355.172c22.646 20.867 53.061 33.522 86.14 33.522 71.037 0 128.538-57.941 128.538-129.207 0-71.482-57.501-129.424-128.538-129.424-33.079 0-63.493 12.653-86.14 33.522-25.972 23.752-42.401 57.943-42.401 95.902 0 37.963 16.43 72.155 42.401 95.685z" clip-rule="evenodd"/><path fill-rule="evenodd" fill="#E40520" d="M299.086 245.725c-.444-4.662-1.331-9.102-2.223-13.764h-78.586c.888-4.662 2.217-9.103 3.549-13.543h71.266c-1.558-4.659-3.333-9.323-5.332-13.763h-60.382c2.22-4.659 4.661-9.323 7.326-13.763h45.51c-2.887-4.662-6.215-9.325-9.769-13.542H244.47a128.348 128.348 0 0 1 13.097-13.763c-22.863-20.647-53.057-33.522-86.356-33.522-70.817 0-128.538 57.942-128.538 129.424 0 71.266 57.721 129.207 128.538 129.207 33.3 0 63.493-12.655 86.356-33.522a123.815 123.815 0 0 0 12.878-13.544H244.47c-3.552-4.439-6.66-8.879-9.767-13.763h45.51a103.017 103.017 0 0 0 7.546-13.764h-60.382c-2.001-4.439-3.996-8.88-5.552-13.544h71.266c1.553-4.439 2.661-9.1 3.771-13.763.892-4.439 1.778-9.104 2.223-13.764.443-4.44.666-8.879.666-13.544.001-4.66-.222-9.323-.665-13.763z" clip-rule="evenodd"/><path fill-rule="evenodd" fill="#FFF" d="M455.15 289.459c0-2.439 1.774-4.215 3.996-4.215 2.44 0 4.217 1.775 4.217 4.215 0 2.22-1.776 4.221-4.217 4.221-2.221 0-3.996-2.001-3.996-4.221zm3.996 3.107c1.775 0 3.329-1.331 3.329-3.107 0-1.777-1.554-3.109-3.329-3.109-1.554 0-3.108 1.332-3.108 3.109 0 1.776 1.555 3.107 3.108 3.107zm-.444-1.331h-.888v-3.554h2.442c.444.226.444.67.444 1.113 0 .221-.221.664-.666.889l.888 1.552h-1.109l-.444-1.332h-.666v1.332-1.996h.444c.222 0 .446 0 .446-.224.22 0 .22-.221.22-.443 0 0 0-.221-.22-.221 0-.226-.225 0-.446 0h-.444v2.884h-.001z" clip-rule="evenodd"/><path fill-rule="evenodd" fill="#06326E" d="M213.835 296.786c-4.216 1.108-7.324 1.775-10.432 1.775-6.662 0-10.658-4.22-10.658-11.767 0-1.551.222-3.108.444-4.884l.888-5.108.667-4.215 5.994-36.409h13.321l-1.557 7.992h8.438l-1.998 13.321h-8.435l-3.552 21.755c-.225 1.113-.225 1.775-.225 2.22 0 2.89 1.332 3.996 4.665 3.996 1.551 0 2.883-.219 4.215-.444l-1.775 11.768zm43.07-.443c-4.883 1.332-9.322 1.996-14.21 1.996-15.095 0-23.752-7.992-23.752-23.756 0-18.423 10.212-31.744 24.418-31.744 11.325 0 18.649 7.55 18.649 19.313 0 3.995-.443 7.772-1.553 13.099h-27.751c-.224.889-.224 1.333-.224 1.776 0 6.216 4.219 9.322 12.211 9.322 5.107 0 9.547-1.105 14.431-3.326l-2.219 13.32zm-8.216-31.747v-2.664c0-4.439-2.438-6.883-6.659-6.883-4.439 0-7.549 3.332-8.879 9.547h15.538zM107.276 297.45H93.512l7.992-50.394-17.982 50.394h-9.546l-1.111-50.17-8.435 50.17H50.888l10.878-65.489h20.203l.443 40.402 13.541-40.402h22.2l-10.877 65.489zm33.523-23.756c-1.333-.219-1.776-.219-2.664-.219-7.994 0-11.989 3.108-11.989 7.991 0 3.333 1.998 5.553 5.106 5.553 6.66.001 9.325-5.552 9.547-13.325zm11.099 23.756h-11.987l.222-5.548c-3.109 4.216-7.327 6.437-14.652 6.437-6.661 0-12.433-5.991-12.433-14.652 0-2.438.446-4.658 1.109-6.884 2.22-8.212 10.435-13.318 23.09-13.538 1.552 0 3.994 0 6.215.22.444-1.776.444-2.44.444-3.553 0-3.552-2.886-4.658-9.325-4.658-3.996 0-8.436.662-11.544 1.775l-1.996.443-.888.22 1.997-11.987c6.438-1.995 11.101-2.886 16.207-2.886 11.987 0 18.425 5.55 18.425 15.761 0 2.664.222 4.665-.666 10.436l-3.108 19.091-.444 3.332-.222 2.665-.222 1.775-.222 1.551zm172.05-52.833c3.995 0 7.548 1.108 12.43 3.552l2.444-14.21c-1.331-.666-1.776-.666-3.553-1.331l-5.551-1.555c-1.775-.444-3.994-.666-6.438-.666-6.881 0-10.876.222-15.094 2.665-2.22 1.554-5.106 3.551-8.214 7.104l-1.776-.444-14.209 9.989.666-5.549h-14.651l-8.657 53.279h13.985l5.105-28.639s1.998-3.996 2.886-5.327c2.663-3.328 4.883-3.328 7.771-3.328h1.111c-.447 3.108-.669 6.435-.669 10.212 0 17.313 9.77 28.193 24.865 28.193 3.774 0 7.104-.443 12.21-1.775l2.441-15.095c-4.44 2.439-8.437 3.553-11.766 3.553-8.213 0-13.096-6.216-13.096-15.989.002-14.428 7.327-24.639 17.76-24.639zm117.883-12.656l-3.107 18.647c-3.331-5.103-7.325-7.548-12.653-7.548-7.329 0-14.21 4.22-18.428 12.213v-.225l-8.88-5.329.888-5.549h-14.873l-8.436 53.279h13.765l4.66-28.639s3.552-3.996 4.44-5.327c2.22-2.663 4.44-3.109 6.216-3.328-1.554 4.439-2.441 9.769-2.441 15.759 0 13.324 6.882 22.203 17.095 22.203 5.106 0 9.102-1.775 12.875-5.996l-.665 5.328h13.097l10.655-65.489h-14.208v.001zM424.739 284.8c-4.663 0-7.105-3.552-7.105-10.437 0-10.436 4.437-17.983 10.877-17.983 4.886 0 7.327 3.776 7.327 10.437 0 10.655-4.44 17.983-11.099 17.983zm-64.16-11.106c-1.333-.219-1.777-.219-2.664-.219-7.992 0-11.988 3.108-11.988 7.991 0 3.333 1.999 5.553 5.106 5.553 6.659.001 9.324-5.552 9.546-13.325zm11.099 23.756h-12.21l.445-5.548c-3.108 4.216-7.326 6.437-14.651 6.437-6.882 0-12.878-5.772-12.878-14.652 0-12.655 9.548-20.422 24.643-20.422 1.554 0 3.996 0 5.994.22.443-1.776.666-2.44.666-3.553 0-3.552-2.885-4.658-9.546-4.658-3.773 0-8.436.662-11.542 1.775l-1.776.443-.89.22 1.999-11.987c6.438-1.995 11.099-2.886 16.205-2.886 11.987 0 18.205 5.55 18.205 15.761 0 2.664.441 4.665-.668 10.436l-2.887 19.091-.443 3.332-.444 2.665-.222 1.775v1.551zM180.98 255.492c2.664 0 6.438.225 10.434.888l1.998-12.431c-3.996-.443-9.325-1.11-12.432-1.11-15.54 0-20.647 8.438-20.647 18.205 0 6.437 2.888 11.1 10.435 14.652 5.549 2.663 6.438 3.107 6.438 5.552 0 3.328-2.886 5.328-8.214 5.328-4.218 0-8.213-.669-12.654-2.22l-1.554 12.206.222.224 2.664.444c.887.22 2 .444 3.553.664 3.33.224 6.216.444 7.991.444 15.541 0 21.979-5.991 21.979-17.76 0-7.329-3.553-11.768-10.435-14.876-5.994-2.663-6.66-3.107-6.66-5.547 0-2.443 2.664-4.663 6.882-4.663z" clip-rule="evenodd"/><path fill-rule="evenodd" fill="#FFF" d="M342.599 229.742l-2.443 14.207c-4.886-2.441-8.438-3.552-12.434-3.552-10.433 0-17.76 10.212-17.76 24.644 0 9.987 4.885 15.982 13.098 15.982 3.33 0 7.326-1.106 11.766-3.332l-2.441 14.876c-5.106 1.332-8.436 2-12.209 2-15.096 0-24.421-10.88-24.421-28.419 0-23.309 12.877-39.735 31.302-39.735 2.441 0 4.662.222 6.44.666l5.549 1.332c1.776.665 2.218.887 3.553 1.331zm-44.844 9.767h-1.333c-4.665 0-7.327 2.22-11.546 8.66l1.331-8.216h-12.651l-8.658 53.282h13.984c5.106-32.635 6.438-38.187 13.098-38.187h.888c1.332-6.436 3.108-11.1 5.33-15.318l-.443-.221zm-80.368 53.057c-3.771 1.332-6.878 1.775-9.987 1.775-7.105 0-11.102-3.995-11.102-11.762 0-1.332.222-3.113.444-4.664l.889-5.328.665-4.221 5.997-36.406h13.763l-1.557 7.992h7.104l-1.775 13.1h-7.104l-3.771 22.198c-.224.889-.224 1.552-.224 2.221 0 2.664 1.332 3.776 4.664 3.776 1.551 0 2.886 0 3.774-.444l-1.78 11.763zm-53.5-35.742c0 6.66 3.107 11.323 10.433 14.876 5.773 2.663 6.661 3.551 6.661 5.771 0 3.332-2.441 4.884-7.992 4.884-4.218 0-7.992-.664-12.432-1.995l-2 12.206.667.225 2.443.444c.887.219 1.998.444 3.774.444 3.108.443 5.771.443 7.548.443 14.652 0 21.534-5.551 21.534-17.76 0-7.328-2.886-11.548-9.768-14.875-5.994-2.663-6.661-3.333-6.661-5.771 0-2.888 2.443-4.221 6.883-4.221 2.663 0 6.438.225 9.989.669l1.998-12.212c-3.552-.666-9.101-1.111-12.209-1.111-15.541.001-21.09 8.215-20.868 17.983zm285.048 36.411h-13.097l.665-5.109c-3.773 3.996-7.77 5.772-12.875 5.772-10.215 0-16.874-8.654-16.874-21.979 0-17.758 10.435-32.854 22.646-32.854 5.55 0 9.546 2.442 13.319 7.328l3.108-18.652h13.766l-10.658 65.494zm-20.424-12.431c6.438 0 10.879-7.554 10.879-17.982 0-6.886-2.443-10.437-7.325-10.437-6.217 0-10.881 7.327-10.881 17.759 0 7.107 2.444 10.66 7.327 10.66zm-168.498 11.318c-4.883 1.558-9.322 2.22-14.432 2.22-15.538 0-23.53-8.211-23.53-23.974 0-18.203 10.211-31.748 24.2-31.748 11.542 0 18.868 7.548 18.868 19.315 0 3.996-.445 7.768-1.776 13.321h-27.529c-.222.662-.222 1.106-.222 1.55 0 6.222 4.218 9.329 12.21 9.329 5.107 0 9.547-.888 14.432-3.332l-2.221 13.319zm-7.772-31.747v-2.663c0-4.44-2.439-6.881-6.66-6.881-4.439 0-7.547 3.331-8.879 9.544h15.539zm-141.413 32.86H97.065l7.991-50.396-17.982 50.396h-9.547l-1.109-49.953-8.437 49.953H55.106l10.878-65.494h19.98l.666 40.626 13.319-40.626h21.757l-10.878 65.494zm34.41-23.755c-1.332 0-1.998-.226-3.107-.226-7.771 0-11.767 2.889-11.767 8.217 0 3.332 1.776 5.328 4.884 5.328 5.773.001 9.769-5.327 9.99-13.319zm10.212 23.755h-11.544l.222-5.554c-3.552 4.44-8.215 6.441-14.652 6.441-7.547 0-12.653-5.771-12.653-14.433 0-13.1 8.879-20.646 24.418-20.646 1.554 0 3.554.224 5.773.443.444-1.775.444-2.438.444-3.327 0-3.551-2.441-4.883-8.88-4.883-3.996 0-8.436.444-11.543 1.332l-1.998.663-1.332.224 1.998-11.988c6.881-1.999 11.545-2.666 16.65-2.666 11.987 0 18.426 5.329 18.426 15.542 0 2.664-.222 4.659-1.109 10.655l-3.11 18.872-.444 3.327-.222 2.664-.221 1.999-.223 1.335zm209.569-23.755c-1.555 0-2.22-.226-3.108-.226-7.991 0-11.987 2.889-11.987 8.217 0 3.332 1.998 5.328 5.106 5.328 5.549.001 9.767-5.327 9.989-13.319zm10.21 23.755h-11.543l.222-5.554c-3.551 4.44-8.213 6.441-14.65 6.441-7.548 0-12.653-5.771-12.653-14.433 0-13.1 8.879-20.646 24.418-20.646 1.554 0 3.552.224 5.551.443.443-1.775.665-2.438.665-3.327 0-3.551-2.441-4.883-8.88-4.883-3.995 0-8.656.444-11.766 1.332l-1.775.663-1.332.224 1.998-11.988c6.882-1.999 11.543-2.666 16.648-2.666 11.988 0 18.206 5.329 18.206 15.542 0 2.664 0 4.659-1.113 10.655l-2.883 18.872-.446 3.327-.443 2.664-.223 1.999v1.335h-.001zm37.297-53.726h-1.332c-4.662 0-7.325 2.22-11.544 8.66l1.331-8.216H388.33l-8.438 53.282h13.765c5.106-32.635 6.438-38.187 13.098-38.187h.889c1.331-6.436 3.107-11.1 5.327-15.318l-.445-.221z" clip-rule="evenodd"/></svg>