<svg xmlns="http://www.w3.org/2000/svg"><defs><style>.cls-1{fill:#8e8e8e}</style><style>.cls-1{fill:#8e8e8e}.cls-2{fill:none;stroke:#8e8e8e;stroke-linecap:square;stroke-miterlimit:10}</style></defs><symbol id="article" viewBox="0 0 1024 1024"><title/><path d="M623.964 351.863H200.126c-4.53 0-8.192 3.662-8.192 8.192s3.662 8.192 8.192 8.192h423.838c4.53 0 8.192-3.662 8.192-8.192s-3.662-8.192-8.192-8.192zm0 79.97H200.126c-4.53 0-8.192 3.662-8.192 8.192s3.662 8.192 8.192 8.192h423.838c4.53 0 8.192-3.662 8.192-8.192s-3.662-8.192-8.192-8.192zm0 79.979H200.126c-4.53 0-8.192 3.662-8.192 8.192s3.662 8.192 8.192 8.192h423.838c4.53 0 8.192-3.662 8.192-8.192s-3.662-8.192-8.192-8.192zm0 79.962H200.126c-4.53 0-8.192 3.662-8.192 8.192s3.662 8.192 8.192 8.192h423.838c4.53 0 8.192-3.662 8.192-8.192s-3.662-8.192-8.192-8.192zm199.918 79.97H527.995c-4.53 0-8.192 3.662-8.192 8.192s3.662 8.192 8.192 8.192h295.887c4.53 0 8.192-3.662 8.192-8.192s-3.662-8.192-8.192-8.192zm0 79.97H527.995c-4.53 0-8.192 3.662-8.192 8.192s3.662 8.192 8.192 8.192h295.887c4.53 0 8.192-3.662 8.192-8.192s-3.662-8.192-8.192-8.192zm0 79.962H527.995c-4.53 0-8.192 3.662-8.192 8.192s3.662 8.192 8.192 8.192h295.887c4.53 0 8.192-3.662 8.192-8.192s-3.662-8.192-8.192-8.192zm0 79.979H527.995c-4.53 0-8.192 3.662-8.192 8.192s3.662 8.192 8.192 8.192h295.887c4.53 0 8.192-3.662 8.192-8.192s-3.662-8.192-8.192-8.192zm0-559.792H695.931c-4.53 0-8.192 3.662-8.192 8.192s3.662 8.192 8.192 8.192h127.951c4.53 0 8.192-3.662 8.192-8.192s-3.662-8.192-8.192-8.192zm0 79.97H695.931c-4.53 0-8.192 3.662-8.192 8.192s3.662 8.192 8.192 8.192h127.951c4.53 0 8.192-3.662 8.192-8.192s-3.662-8.192-8.192-8.192zm0 79.979H695.931c-4.53 0-8.192 3.662-8.192 8.192s3.662 8.192 8.192 8.192h127.951c4.53 0 8.192-3.662 8.192-8.192s-3.662-8.192-8.192-8.192zm0 79.962H695.931c-4.53 0-8.192 3.662-8.192 8.192s3.662 8.192 8.192 8.192h127.951c4.53 0 8.192-3.662 8.192-8.192s-3.662-8.192-8.192-8.192z"/><path d="M887.861 0H136.147c-13.337 0-24.191 10.846-24.191 24.183v975.634c0 13.337 10.854 24.183 24.191 24.183h751.714c13.337 0 24.183-10.846 24.183-24.183V24.183C912.044 10.846 901.198 0 887.861 0zm7.799 999.817c0 4.301-3.498 7.799-7.799 7.799H136.147c-4.301 0-7.807-3.498-7.807-7.799V24.183c0-4.301 3.506-7.799 7.807-7.799h751.714c4.301 0 7.799 3.498 7.799 7.799v975.634z"/><path d="M823.89 95.961H200.127a8.185 8.185 0 0 0-8.192 8.192v175.931a8.185 8.185 0 0 0 8.192 8.192h623.755a8.197 8.197 0 0 0 8.2-8.192V104.153a8.185 8.185 0 0 0-8.192-8.192zm-8.192 175.931H208.319V112.345h607.379v159.547zM440.037 671.744H200.126a8.185 8.185 0 0 0-8.192 8.192v239.911a8.185 8.185 0 0 0 8.192 8.192h239.911a8.185 8.185 0 0 0 8.192-8.192V679.936a8.185 8.185 0 0 0-8.192-8.192zm-8.192 239.911H208.318V688.128h223.527v223.527z"/></symbol><symbol id="assortiment" viewBox="0 0 1024 1024"><title/><path d="M416 160v-32.067C416 92.744 444.724 64 480.156 64h31.688C547.395 64 576 92.624 576 127.933V160h64.142C657.766 160 672 174.312 672 191.967v32.067c0 17.801-14.264 31.967-31.858 31.967H351.859c-17.624 0-31.858-14.312-31.858-31.967v-32.067c0-17.801 14.264-31.967 31.858-31.967h64.142zm288 32h32.083c35.408 0 63.918 28.705 63.918 64.115v671.77c0 35.643-28.617 64.115-63.918 64.115H255.918C220.51 992 192 963.295 192 927.885v-671.77C192 220.472 220.617 192 255.918 192h32.083v31.844c0 35.432 28.593 64.156 64.088 64.156h287.823C675.307 288 704 259.395 704 223.844V192zm-208-32c8.837 0 16-7.163 16-16s-7.163-16-16-16-16 7.163-16 16 7.163 16 16 16zm-48 288v32h256v-32H448zm-160-32v96h96v-96h-96zm32 32v32h32v-32h-32zm-32 128v96h96v-96h-96zm32 32v32h32v-32h-32zm128 0v32h256v-32H448zM288 736v96h96v-96h-96zm32 32v32h32v-32h-32zm128 0v32h256v-32H448z"/></symbol><symbol id="buy" viewBox="0 0 1024 1024"><title/><path d="M1018.329 419.092C853.583 768 799.981 768 768 768H452.923c-110.356 0-194.914-64.906-215.434-165.415-.63-3.072-63.015-309.287-78.966-394.831-7.838-41.945-27.766-69.908-99.446-69.908C26.427 137.846 0 111.419 0 78.769s26.427-59.077 59.077-59.077c118.942 0 195.505 59.077 215.591 166.361 15.793 84.638 77.982 389.829 78.612 392.94 12.564 61.676 67.82 70.892 99.643 70.892h299.52c32.177-34.58 105.511-167.818 159.035-281.246 13.942-29.499 49.191-42.063 78.651-28.199 29.538 13.903 42.142 49.113 28.199 78.651zM413.538 807.385c-54.39 0-98.462 44.071-98.462 98.462s44.071 98.462 98.462 98.462S512 960.238 512 905.847s-44.071-98.462-98.462-98.462zm354.462 0c-54.39 0-98.462 44.071-98.462 98.462s44.071 98.462 98.462 98.462 98.462-44.071 98.462-98.462-44.071-98.462-98.462-98.462zM577.497 486.164c3.938 3.19 8.783 4.726 13.627 4.726s9.61-1.536 13.627-4.726c3.938-3.111 111.38-107.914 169.984-195.111 4.529-6.774 4.962-15.439 1.103-22.607-3.742-7.129-11.225-11.618-19.298-11.618h-87.67s-8.546-168.999-14.139-176.837c-8.113-11.579-41.63-19.456-63.646-19.456-22.095 0-56.202 7.877-64.354 19.456-5.553 7.798-12.918 176.837-12.918 176.837h-88.812c-8.113 0-15.557 4.49-19.377 11.618a22.082 22.082 0 0 0 1.103 22.607c58.644 87.237 166.873 192 170.772 195.111z"/></symbol><symbol id="cart" viewBox="0 0 1024 1024"><title>clock</title><path fill="none" stroke-width="32" stroke-miterlimit="10" stroke-linecap="round" stroke-linejoin="round" d="M776 808c0 35.346-28.654 64-64 64s-64-28.654-64-64c0-35.346 28.654-64 64-64s64 28.654 64 64zm-320 0c0 35.346-28.654 64-64 64s-64-28.654-64-64c0-35.346 28.654-64 64-64s64 28.654 64 64zM232 264h664.641c22.457 0 37.929 22.527 29.867 43.487L799.013 638.974c-9.506 24.716-33.253 41.025-59.734 41.025H364.866c-30.686 0-57.053-21.78-62.848-51.914l-70.017-364.086zm-.436.086l-12.13-60.64c-5.984-29.914-32.25-51.447-62.757-51.447H98.75M719.232 360h24.002M256 360h391.234"/></symbol><symbol id="cat-list" viewBox="0 0 512 512"><path d="M54.003 158.367c-19.604 0-35.503-15.894-35.503-35.502 0-19.604 15.899-35.503 35.503-35.503s35.503 15.898 35.503 35.503c0 19.609-15.899 35.502-35.503 35.502zM493.5 99.957c0-2.884-2.241-5.222-5.009-5.222H139.405c-2.766 0-5.008 2.338-5.008 5.222v45.815c0 2.883 2.243 5.221 5.008 5.221h349.086c2.768 0 5.009-2.338 5.009-5.221V99.957zM54.003 291.503C34.399 291.503 18.5 275.608 18.5 256c0-19.604 15.899-35.503 35.503-35.503S89.506 236.396 89.506 256c0 19.608-15.899 35.503-35.503 35.503zM493.5 233.092c0-2.883-2.241-5.221-5.009-5.221H139.405c-2.766 0-5.008 2.338-5.008 5.221v45.816c0 2.883 2.243 5.221 5.008 5.221h349.086c2.768 0 5.009-2.338 5.009-5.221v-45.816zM54.003 424.638c-19.604 0-35.503-15.894-35.503-35.502 0-19.604 15.899-35.503 35.503-35.503s35.503 15.898 35.503 35.503c0 19.608-15.899 35.502-35.503 35.502zm439.497-58.41c0-2.884-2.241-5.222-5.009-5.222H139.405c-2.766 0-5.008 2.338-5.008 5.222v45.816c0 2.883 2.243 5.221 5.008 5.221h349.086c2.768 0 5.009-2.338 5.009-5.221v-45.816z" fill="none" stroke="#000" stroke-miterlimit="10" stroke-width="10"/></symbol><symbol id="clock" viewBox="0 0 32 32"><title>clock</title><path fill="none" stroke="#000" stroke-width="1.28" stroke-miterlimit="10" stroke-linecap="round" d="M30.08 17.28c0 7.776-6.304 14.08-14.08 14.08S1.92 25.056 1.92 17.28 8.224 3.2 16 3.2s14.08 6.304 14.08 14.08zm-14.08 0V7.04m0 10.24H9.6M6.169 27.751L2.56 31.36m23.271-3.609l3.609 3.609m1.19-22.4a5.53 5.53 0 0 0 .73-2.75A5.57 5.57 0 0 0 25.79.64a5.54 5.54 0 0 0-2.75.73l7.59 7.59zm-29.26 0a5.53 5.53 0 0 1-.73-2.75A5.57 5.57 0 0 1 6.21.64a5.54 5.54 0 0 1 2.75.73L1.37 8.96z"/></symbol><symbol id="double-door" viewBox="0 0 1024 1024"><title/><path d="M0 44.482v935.034h70.412V807.724h23.89v170.762l292.182-63.897V204.692L94.302 140.793v110.686h-23.89V114.894h883.175v136.585h-25.959V140.793l-292.182 63.899v709.897l292.182 63.897V807.724h25.959v171.792h70.412V44.482h-1024zm337.505 469.209c10.429 0 18.887 9.918 18.887 22.153s-8.458 22.153-18.887 22.153-18.889-9.918-18.889-22.153 8.46-22.153 18.889-22.153zM94.303 348.858v361.484h-23.89V348.858h23.89zM684.42 557.999c-10.427 0-18.889-9.918-18.889-22.155 0-12.235 8.462-22.149 18.889-22.149s18.889 9.914 18.889 22.149c0 12.237-8.462 22.155-18.889 22.155zm269.164 152.343h-25.959V348.858h25.959v361.484z"/></symbol><symbol id="email" viewBox="0 0 1024 1024"><title/><path d="M361.381 608L256 518.4V256.066C256 238.199 270.326 224 287.999 224h480.003c17.448 0 31.999 14.357 31.999 32.066V518.4L693.342 608h-331.96zm37.636 32l57.054 48.51h141.432L655.249 640H399.018zm310.908 4.064L640 704l189.538 162.462-25.846 25.846-191.866-164.457-167.149.729L444 728 252.308 892.308l-25.846-25.846L416 704l-69.925-59.936L224 540.801V363.52L128 448v448.19c0 35.241 28.472 63.81 64.115 63.81h671.77c35.41 0 64.115-28.624 64.115-63.81V448l-96-84.48v177.281L709.925 644.064zM637.091 192L528 96l-109.091 96h218.182zM320 320v32h416v-32H320zm0 96v32h416v-32H320zm0 96v32h416v-32H320z"/></symbol><symbol id="eye" viewBox="0 0 20 11.36"><title/><g data-name="Layer 2" id="Layer_2"><g data-name="Layer 1" id="Layer_1-2"><path class="cls-1" d="M10 1a9.37 9.37 0 0 1 6.67 2.76l1.92 1.92-1.92 1.92a9.43 9.43 0 0 1-13.34 0L1.41 5.68l1.92-1.92A9.37 9.37 0 0 1 10 1m0-1a10.4 10.4 0 0 0-7.37 3.05L0 5.68 2.63 8.3a10.43 10.43 0 0 0 14.75 0L20 5.68l-2.62-2.63A10.4 10.4 0 0 0 10 0z"/><path class="cls-1" d="M10 2.68a3 3 0 0 0-.87.14 1.5 1.5 0 1 1-2 2 3 3 0 0 0-.13.86 3 3 0 1 0 3-3z"/></g></g></symbol><symbol id="layer-3" viewBox="0 0 280.176 280.176"><path d="M0 161.965l140.092-70.042 140.084 70.042-140.084 70.042L0 161.965z" fill="#1a7492"/><path d="M0 118.202l140.092-70.033 140.084 70.042-140.084 70.042L0 118.202z" fill="#26a6d1"/></symbol><symbol id="layers-1" viewBox="0 0 512 512"><path d="M466.83 395.474l-199.976 114.35a16.568 16.568 0 0 1-16.412 0L50.466 395.474c-11.07-6.323-11.112-22.275-.063-28.65l18.874-10.892 181.102-104.574a16.522 16.522 0 0 1 16.526 0l181.113 104.574 18.874 10.892c11.039 6.375 11.008 22.328-.062 28.65z" fill="#1e81ce"/><path d="M448.019 355.932L266.854 459.514a16.513 16.513 0 0 1-16.412 0L69.277 355.932l181.102-104.574a16.522 16.522 0 0 1 16.526 0l181.114 104.574z" fill="#1a6fb0"/><path d="M466.83 311.966l-199.976 114.35a16.568 16.568 0 0 1-16.412 0L50.466 311.966c-11.07-6.323-11.112-22.275-.063-28.66l18.874-10.892 181.102-104.563a16.522 16.522 0 0 1 16.526 0l181.113 104.563 18.874 10.892c11.039 6.384 11.008 22.337-.062 28.66z" fill="#5aaae7"/><path d="M448.019 272.413L266.854 376.006a16.568 16.568 0 0 1-16.412 0L69.277 272.413 250.379 167.85a16.522 16.522 0 0 1 16.526 0l181.114 104.563z" fill="#3d9ae2"/><path d="M466.83 228.457l-199.976 114.35a16.568 16.568 0 0 1-16.412 0L50.466 228.457c-11.07-6.333-11.112-22.286-.063-28.66l15.629-9.025L250.379 84.341a16.522 16.522 0 0 1 16.526 0l166.287 95.997 33.7 19.458c11.039 6.375 11.008 22.328-.062 28.661z" fill="#78b9eb"/><path d="M433.193 180.338v6.281a31.158 31.158 0 0 1-15.692 27.043L297.58 282.231l-30.205 17.267a11.282 11.282 0 0 1-11.195 0L66.032 190.772 250.379 84.341a16.522 16.522 0 0 1 16.526 0l166.288 95.997z" fill="#5aaae7"/><path d="M430.063 97.216v70.957L294.45 245.714l-30.205 17.267a11.282 11.282 0 0 1-11.195 0L42.526 142.611c-7.554-4.319-7.575-15.212-.042-19.552L253.009 1.51a11.281 11.281 0 0 1 11.278 0l27.44 15.838 138.336 79.868z" fill="#b3d8f4"/><path d="M430.062 97.22v70.951l-59.186-28.383c-5.826-2.794-5.842-11.083-.026-13.898l59.212-28.67z" fill="#d1e7f8"/></symbol><symbol id="layers-2" viewBox="0 0 512 512"><path d="M512 175.543H175.543V512H512V175.543z" fill="#3c5d76"/><path d="M512 175.543H343.771V512H512V175.543z" fill="#1e2e3b"/><path d="M424.229 87.771H87.771v336.457h336.457V87.771z" fill="#78b9eb"/><path d="M424.229 87.771H256v336.457h168.229V87.771z" fill="#5a8bb0"/><path d="M336.457 0H0v336.457h336.457V0z" fill="#bfe4f8"/><path d="M336.457 0H168.229v336.457h168.229V0z" fill="#93c7ef"/><path d="M248.686 248.686v87.771l87.771-87.771h-87.771z" fill="#fff"/><path d="M336.457 248.686l-87.771 87.771h87.771v-87.771z" fill="#bfe4f8"/></symbol><symbol id="layers" viewBox="0 0 496 496"><path fill="#ffc239" d="M248 244L0 149.6l248-80.8 248 80.8z"/><path fill="#efa91b" d="M248 68.8l248 80.8L248 244"/><path fill="#23c181" d="M248 292.8L60.8 221.6 0 241.6 248 336l248-94.4-60.8-20z"/><path fill="#05966c" d="M248 336l248-94.4-60.8-20L248 292.8"/><path fill="#f44d3b" d="M248 384.8L60.8 313.6 0 333.6l248 93.6 248-93.6-60.8-20z"/><path fill="#c42014" d="M248 427.2l248-93.6-60.8-20L248 384.8"/></symbol><symbol id="localizer" viewBox="0 0 32 32"><title>localizer</title><path d="M16 0C10.218 0 5.513 4.701 5.513 10.48c0 5.554 9.53 20.581 9.936 21.218a.654.654 0 0 0 1.102 0c.406-.637 9.936-15.664 9.936-21.218C26.487 4.701 21.783 0 16 0zm0 30.114a157.058 157.058 0 0 1-4.346-7.483C8.491 16.791 6.82 12.59 6.82 10.48c0-5.058 4.118-9.174 9.18-9.174s9.18 4.115 9.18 9.174c0 2.11-1.672 6.312-4.834 12.151A157.94 157.94 0 0 1 16 30.114z"/><path d="M16 4.968c-2.735 0-4.961 2.165-4.961 4.826S13.264 14.62 16 14.62s4.961-2.165 4.961-4.826c0-2.661-2.225-4.826-4.961-4.826zm0 8.345c-2.015 0-3.654-1.579-3.654-3.519s1.639-3.52 3.654-3.52 3.654 1.579 3.654 3.52-1.639 3.519-3.654 3.519z"/></symbol><symbol id="location" viewBox="0 0 1024 1024"><title/><path d="M893.624 987.932L758.626 702.37a25.266 25.266 0 0 0-12.96-12.446l-67.16-29.898 116.37-195.036c.278-.468.54-.942.79-1.426 23.136-45.158 34.868-93.956 34.868-145.03 0-85.918-33.692-166.466-94.87-226.804C674.496 31.406 593.46-1.176 507.49.032c-83.496 1.158-162.112 34.696-221.37 94.44-59.252 59.74-92.156 138.626-92.652 222.132-.304 51.03 11.754 101.846 34.862 146.958.248.482.51.958.788 1.426l116.368 195.034-67.548 30.062a25.253 25.253 0 0 0-12.57 12.284L130.374 987.932a25.27 25.27 0 0 0 33.12 33.882l169.116-75.292 169.116 75.292a25.288 25.288 0 0 0 20.554 0l169.116-75.292 169.116 75.292a25.26 25.26 0 0 0 28.344-5.42 25.269 25.269 0 0 0 4.768-28.462zm-620.678-548.12c-19.46-38.264-29.198-79.61-28.94-122.906.856-144.858 119.372-264.34 264.188-266.346 72.332-.972 140.526 26.398 191.986 77.152 51.476 50.766 79.822 118.534 79.822 190.824 0 42.718-9.738 83.514-28.946 121.276L533.7 804.108c-6.636 11.12-17.384 12.32-21.698 12.32-4.316 0-15.064-1.2-21.698-12.32L272.946 439.812zm428.722 455.97a25.288 25.288 0 0 0-20.554 0l-169.116 75.292-169.116-75.292a25.288 25.288 0 0 0-20.554 0l-117.156 52.16 101.876-215.498 64.516-28.712L446.9 829.998c13.808 23.144 38.144 36.962 65.094 36.962s51.286-13.818 65.094-36.96l75.336-126.266 64.522 28.722 101.87 215.488-117.148-52.162z"/><path d="M512.008 203.214c-63.588 0-115.318 51.73-115.318 115.316s51.73 115.316 115.318 115.316c63.586.002 115.316-51.73 115.316-115.316s-51.73-115.316-115.316-115.316zm0 180.1c-35.722.002-64.786-29.058-64.786-64.784 0-35.722 29.062-64.784 64.786-64.784 35.722 0 64.784 29.062 64.784 64.784s-29.062 64.784-64.784 64.784z"/></symbol><symbol id="mastercard" viewBox="0 0 504 504"><path d="M504 252c0 83.2-67.2 151.2-151.2 151.2-83.2 0-151.2-68-151.2-151.2 0-83.2 67.2-151.2 150.4-151.2 84.8 0 152 68 152 151.2z" fill="#ffb600"/><path d="M352.8 100.8c83.2 0 151.2 68 151.2 151.2 0 83.2-67.2 151.2-151.2 151.2-83.2 0-151.2-68-151.2-151.2" fill="#f7981d"/><path d="M352.8 100.8c83.2 0 151.2 68 151.2 151.2 0 83.2-67.2 151.2-151.2 151.2" fill="#ff8500"/><path d="M149.6 100.8C67.2 101.6 0 168.8 0 252s67.2 151.2 151.2 151.2c39.2 0 74.4-15.2 101.6-39.2 5.6-4.8 10.4-10.4 15.2-16h-31.2c-4-4.8-8-10.4-11.2-15.2h53.6c3.2-4.8 6.4-10.4 8.8-16h-71.2c-2.4-4.8-4.8-10.4-6.4-16h83.2c4.8-15.2 8-31.2 8-48 0-11.2-1.6-21.6-3.2-32h-92.8c.8-5.6 2.4-10.4 4-16h83.2c-1.6-5.6-4-11.2-6.4-16H216c2.4-5.6 5.6-10.4 8.8-16h53.6c-3.2-5.6-7.2-11.2-12-16h-29.6c4.8-5.6 9.6-10.4 15.2-15.2-26.4-24.8-62.4-39.2-101.6-39.2 0-1.6 0-1.6-.8-1.6z" fill="#ff5050"/><path d="M0 252c0 83.2 67.2 151.2 151.2 151.2 39.2 0 74.4-15.2 101.6-39.2 5.6-4.8 10.4-10.4 15.2-16h-31.2c-4-4.8-8-10.4-11.2-15.2h53.6c3.2-4.8 6.4-10.4 8.8-16h-71.2c-2.4-4.8-4.8-10.4-6.4-16h83.2c4.8-15.2 8-31.2 8-48 0-11.2-1.6-21.6-3.2-32h-92.8c.8-5.6 2.4-10.4 4-16h83.2c-1.6-5.6-4-11.2-6.4-16H216c2.4-5.6 5.6-10.4 8.8-16h53.6c-3.2-5.6-7.2-11.2-12-16h-29.6c4.8-5.6 9.6-10.4 15.2-15.2-26.4-24.8-62.4-39.2-101.6-39.2h-.8" fill="#e52836"/><path d="M151.2 403.2c39.2 0 74.4-15.2 101.6-39.2 5.6-4.8 10.4-10.4 15.2-16h-31.2c-4-4.8-8-10.4-11.2-15.2h53.6c3.2-4.8 6.4-10.4 8.8-16h-71.2c-2.4-4.8-4.8-10.4-6.4-16h83.2c4.8-15.2 8-31.2 8-48 0-11.2-1.6-21.6-3.2-32h-92.8c.8-5.6 2.4-10.4 4-16h83.2c-1.6-5.6-4-11.2-6.4-16H216c2.4-5.6 5.6-10.4 8.8-16h53.6c-3.2-5.6-7.2-11.2-12-16h-29.6c4.8-5.6 9.6-10.4 15.2-15.2-26.4-24.8-62.4-39.2-101.6-39.2h-.8" fill="#cb2026"/><path d="M204.8 290.4l2.4-13.6c-.8 0-2.4.8-4 .8-5.6 0-6.4-3.2-5.6-4.8l4.8-28h8.8l2.4-15.2h-8l1.6-9.6h-16s-9.6 52.8-9.6 59.2c0 9.6 5.6 13.6 12.8 13.6 4.8 0 8.8-1.6 10.4-2.4zm5.6-25.6c0 22.4 15.2 28 28 28 12 0 16.8-2.4 16.8-2.4l3.2-15.2s-8.8 4-16.8 4c-17.6 0-14.4-12.8-14.4-12.8H260s2.4-10.4 2.4-14.4c0-10.4-5.6-23.2-23.2-23.2-16.8-1.6-28.8 16-28.8 36zm28-23.2c8.8 0 7.2 10.4 7.2 11.2H228c0-.8 1.6-11.2 10.4-11.2zM340 290.4l3.2-17.6s-8 4-13.6 4c-11.2 0-16-8.8-16-18.4 0-19.2 9.6-29.6 20.8-29.6 8 0 14.4 4.8 14.4 4.8l2.4-16.8s-9.6-4-18.4-4c-18.4 0-36.8 16-36.8 46.4 0 20 9.6 33.6 28.8 33.6 6.4 0 15.2-2.4 15.2-2.4zm-223.2-63.2c-11.2 0-19.2 3.2-19.2 3.2L95.2 244s7.2-3.2 17.6-3.2c5.6 0 10.4.8 10.4 5.6 0 3.2-.8 4-.8 4h-7.2c-13.6 0-28.8 5.6-28.8 24 0 14.4 9.6 17.6 15.2 17.6 11.2 0 16-7.2 16.8-7.2l-.8 6.4H132l6.4-44c0-19.2-16-20-21.6-20zm3.2 36c0 2.4-1.6 15.2-11.2 15.2-4.8 0-6.4-4-6.4-6.4 0-4 2.4-9.6 14.4-9.6 2.4.8 3.2.8 3.2.8zm33.6 28.8c4 0 24 .8 24-20.8 0-20-19.2-16-19.2-24 0-4 3.2-5.6 8.8-5.6 2.4 0 11.2.8 11.2.8l2.4-14.4s-5.6-1.6-15.2-1.6c-12 0-24 4.8-24 20.8 0 18.4 20 16.8 20 24 0 4.8-5.6 5.6-9.6 5.6-7.2 0-14.4-2.4-14.4-2.4l-2.4 14.4c.8 1.6 4.8 3.2 18.4 3.2zm319.2-77.6l-3.2 21.6s-6.4-8-15.2-8c-14.4 0-27.2 17.6-27.2 38.4 0 12.8 6.4 26.4 20 26.4 9.6 0 15.2-6.4 15.2-6.4l-.8 5.6h16l12-76.8-16.8-.8zm-7.2 42.4c0 8.8-4 20-12.8 20-5.6 0-8.8-4.8-8.8-12.8 0-12.8 5.6-20.8 12.8-20.8 5.6 0 8.8 4 8.8 13.6zm-436 34.4l9.6-57.6 1.6 57.6H52l20.8-57.6-8.8 57.6h16.8l12.8-76.8H67.2l-16 47.2-.8-47.2H27.2l-12.8 76.8h15.2zm248 0c4.8-26.4 5.6-48 16.8-44 1.6-10.4 4-14.4 5.6-18.4h-3.2c-7.2 0-12.8 9.6-12.8 9.6l1.6-8.8h-15.2L260 292h17.6v-.8zm99.2-64c-11.2 0-19.2 3.2-19.2 3.2l-2.4 13.6s7.2-3.2 17.6-3.2c5.6 0 10.4.8 10.4 5.6 0 3.2-.8 4-.8 4h-7.2c-13.6 0-28.8 5.6-28.8 24 0 14.4 9.6 17.6 15.2 17.6 11.2 0 16-7.2 16.8-7.2l-.8 6.4H392l6.4-44c.8-19.2-16-20-21.6-20zm4 36c0 2.4-1.6 15.2-11.2 15.2-4.8 0-6.4-4-6.4-6.4 0-4 2.4-9.6 14.4-9.6 2.4.8 2.4.8 3.2.8zm31.2 28c4.8-26.4 5.6-48 16.8-44 1.6-10.4 4-14.4 5.6-18.4h-3.2c-7.2 0-12.8 9.6-12.8 9.6l1.6-8.8h-15.2L394.4 292H412v-.8z" fill="#fff"/><path d="M180 279.2c0 9.6 5.6 13.6 12.8 13.6 5.6 0 10.4-1.6 12-2.4l2.4-13.6c-.8 0-2.4.8-4 .8-5.6 0-6.4-3.2-5.6-4.8l4.8-28h8.8l2.4-15.2h-8l1.6-9.6m11.2 44.8c0 22.4 7.2 28 20 28 12 0 16.8-2.4 16.8-2.4l3.2-15.2s-8.8 4-16.8 4c-17.6 0-14.4-12.8-14.4-12.8H260s2.4-10.4 2.4-14.4c0-10.4-5.6-23.2-23.2-23.2-16.8-1.6-20.8 16-20.8 36zm20-23.2c8.8 0 10.4 10.4 10.4 11.2H228c0-.8 1.6-11.2 10.4-11.2zM340 290.4l3.2-17.6s-8 4-13.6 4c-11.2 0-16-8.8-16-18.4 0-19.2 9.6-29.6 20.8-29.6 8 0 14.4 4.8 14.4 4.8l2.4-16.8s-9.6-4-18.4-4c-18.4 0-28.8 16-28.8 46.4 0 20 1.6 33.6 20.8 33.6 6.4 0 15.2-2.4 15.2-2.4zM95.2 244.8s7.2-3.2 17.6-3.2c5.6 0 10.4.8 10.4 5.6 0 3.2-.8 4-.8 4h-7.2c-13.6 0-28.8 5.6-28.8 24 0 14.4 9.6 17.6 15.2 17.6 11.2 0 16-7.2 16.8-7.2l-.8 6.4H132l6.4-44c0-18.4-16-19.2-22.4-19.2m12 34.4c0 2.4-9.6 15.2-19.2 15.2-4.8 0-6.4-4-6.4-6.4 0-4 2.4-9.6 14.4-9.6 2.4.8 11.2.8 11.2.8zm8 27.2s4.8 1.6 18.4 1.6c4 0 24 .8 24-20.8 0-20-19.2-16-19.2-24 0-4 3.2-5.6 8.8-5.6 2.4 0 11.2.8 11.2.8l2.4-14.4s-5.6-1.6-15.2-1.6c-12 0-16 4.8-16 20.8 0 18.4 12 16.8 12 24 0 4.8-5.6 5.6-9.6 5.6M469.6 236s-6.4-8-15.2-8c-14.4 0-19.2 17.6-19.2 38.4 0 12.8-1.6 26.4 12 26.4 9.6 0 15.2-6.4 15.2-6.4l-.8 5.6h16l12-76.8m-20.8 41.6c0 8.8-7.2 20-16 20-5.6 0-8.8-4.8-8.8-12.8 0-12.8 5.6-20.8 12.8-20.8 5.6 0 12 4 12 13.6zM29.6 291.2l9.6-57.6 1.6 57.6H52l20.8-57.6-8.8 57.6h16.8l12.8-76.8h-20l-22.4 47.2-.8-47.2h-8.8l-27.2 76.8h15.2zm231.2 0h16.8c4.8-26.4 5.6-48 16.8-44 1.6-10.4 4-14.4 5.6-18.4h-3.2c-7.2 0-12.8 9.6-12.8 9.6l1.6-8.8m69.6 15.2s7.2-3.2 17.6-3.2c5.6 0 10.4.8 10.4 5.6 0 3.2-.8 4-.8 4h-7.2c-13.6 0-28.8 5.6-28.8 24 0 14.4 9.6 17.6 15.2 17.6 11.2 0 16-7.2 16.8-7.2l-.8 6.4H392l6.4-44c0-18.4-16-19.2-22.4-19.2m12 34.4c0 2.4-9.6 15.2-19.2 15.2-4.8 0-6.4-4-6.4-6.4 0-4 2.4-9.6 14.4-9.6 3.2.8 11.2.8 11.2.8zm7.2 28H412c4.8-26.4 5.6-48 16.8-44 1.6-10.4 4-14.4 5.6-18.4h-3.2c-7.2 0-12.8 9.6-12.8 9.6l1.6-8.8" fill="#dce5e5"/></symbol><symbol id="mir" viewBox="0 0 49 14"><style id="style3">.st0,.st1{fill-rule:evenodd;clip-rule:evenodd;fill:url(#SVGID_1_)}.st1{fill:#4db45f}</style><linearGradient y2="3" x2="48.5" y1="3" x1="34.174" gradientUnits="userSpaceOnUse" id="SVGID_1_"><stop id="stop6" offset="0" stop-color="#00b4e6"/><stop id="stop8" offset="1" stop-color="#088ccb"/></linearGradient><path id="path10" d="M43.5 0h-9.3c.5 3.1 3.5 6 6.8 6h7.4c.1-.3.1-.7.1-1 0-2.8-2.2-5-5-5z" class="st0"/><path id="path12" d="M35 6.5V14h4.5v-4h4c2.2 0 4.1-1.5 4.7-3.5z" class="st1" clip-rule="evenodd" fill="#4db45f" fill-rule="evenodd"/><path id="path14" d="M19 0v14h4s1 0 1.5-1L28 6h.5v8H33V0h-4s-1 .1-1.5 1L24 8h-.5V0H19z" class="st1"/><path id="path16" d="M0 14V0h4.5s1.3 0 2 2c1.8 5.3 2 6 2 6s.4-1.3 2-6c.7-2 2-2 2-2H17v14h-4.5V6.5H12L9.5 14h-2L5 6.5h-.5V14H0z" class="st1"/></symbol><symbol id="newspaper" viewBox="0 0 1024 1024"><title/><path d="M1004.09 602.274c-12.652-6.983-28.708-5.449-44.052 4.211L676.591 784.972c-7.888 4.969-10.256 15.389-5.289 23.277 4.969 7.888 15.389 10.256 23.277 5.289l283.447-178.487c5.986-3.77 9.263-3.493 9.747-3.223.491.27 2.467 2.892 2.467 9.965 0 19.015-14.113 44.581-30.202 54.713L685.251 869.538c-14.61 9.2-27.967 11.73-36.648 6.941-8.678-4.791-13.654-17.442-13.654-34.71 0-43.746 31.273-100.396 68.292-123.705l312.875-197.015a16.88 16.88 0 0 0 0-28.568l-601.192-378.57a16.88 16.88 0 0 0-17.988 0L80.253 313.325C35.252 341.664-.001 405.518-.001 458.698v9.002c0 53.18 35.252 117.036 80.254 145.373L551.27 909.672c7.888 4.967 18.31 2.597 23.277-5.289 4.967-7.888 2.599-18.31-5.289-23.277L98.241 584.507C63.286 562.499 33.757 509.006 33.757 467.7v-9.002c0-41.306 29.529-94.797 64.484-116.807l307.687-193.75 569.516 358.621-290.192 182.734c-47.137 29.682-84.062 96.568-84.062 152.273 0 30.371 11.043 53.193 31.098 64.264 8.055 4.447 16.937 6.653 26.351 6.653 14.023 0 29.223-4.897 44.599-14.581l274.787-173.032c25.78-16.233 45.971-52.813 45.971-83.278 0-18.13-7.256-32.534-19.908-39.519z"/><path d="M795.93 523.643c5.608 0 11.091-2.793 14.3-7.886 4.967-7.888 2.599-18.31-5.289-23.277L414.925 246.889c-7.89-4.967-18.31-2.597-23.277 5.289-4.967 7.888-2.599 18.31 5.289 23.277l390.016 245.591a16.802 16.802 0 0 0 8.977 2.597zm-67.48 44.795c5.62 0 11.113-2.804 14.316-7.915 4.953-7.897 2.566-18.315-5.334-23.266l-164.763-103.31c-7.902-4.956-18.317-2.563-23.266 5.334-4.953 7.899-2.566 18.315 5.334 23.266L719.5 565.857a16.778 16.778 0 0 0 8.95 2.581zm-224.551-90.069c-7.906-4.938-18.319-2.53-23.257 5.379s-2.53 18.319 5.379 23.257l166.028 103.664a16.808 16.808 0 0 0 8.923 2.563c5.629 0 11.133-2.815 14.334-7.942 4.938-7.908 2.53-18.319-5.379-23.257L503.899 478.369zM326.796 291.06l-140.275 88.342c-4.922 3.099-7.902 8.514-7.884 14.331s3.027 11.214 7.967 14.286l167.293 104.017a16.863 16.863 0 0 0 8.912 2.545c3.189 0 6.376-.902 9.162-2.703l37.26-24.081c7.83-5.061 10.073-15.508 5.014-23.338s-15.508-10.071-23.338-5.014l-28.271 18.272-135.299-84.125 108.475-68.315 133.33 83.6-15.544 10.046c-7.83 5.061-10.073 15.508-5.014 23.338 5.061 7.83 15.515 10.073 23.338 5.014l37.809-24.438a16.888 16.888 0 0 0 7.717-14.293 16.884 16.884 0 0 0-7.913-14.183L344.756 291.042a16.873 16.873 0 0 0-17.959.016zm281.046 358.995c4.922-7.917 2.496-18.324-5.422-23.246L435.123 522.787c-7.917-4.924-18.326-2.496-23.246 5.422-4.922 7.917-2.496 18.324 5.422 23.246l167.297 104.022a16.787 16.787 0 0 0 8.896 2.548c5.64 0 11.154-2.827 14.349-7.969zm-487.378-216.01c-4.922 7.917-2.496 18.324 5.422 23.246l412.922 256.742a16.787 16.787 0 0 0 8.896 2.548c5.64 0 11.154-2.827 14.349-7.969 4.922-7.917 2.496-18.324-5.422-23.246L143.709 428.624c-7.917-4.926-18.324-2.496-23.246 5.422z"/></symbol><symbol id="opened-door" viewBox="0 0 1024 1024"><title/><path d="M383.914 0v45.16h-176.61v901.033h65.293v-835.74h111.318V1024l432.783-77.807V77.97L383.915 0zm79.616 547.095c-14.548 0-26.343-15.346-26.343-34.277 0-18.929 11.795-34.275 26.343-34.275s26.343 15.346 26.343 34.275c0 18.931-11.795 34.277-26.343 34.277z"/></symbol><symbol id="phone-call" viewBox="0 0 64 64"><path fill="none" stroke="#fff" stroke-linecap="round" stroke-linejoin="round" stroke-width="2" d="M33.06 46.94a31.45 31.45 0 0 1-16.17-16.39l4.21-2.84a26.28 26.28 0 0 1-1.77-9.44H9.27a36.46 36.46 0 0 0 36.46 36.46V44.67A26.29 26.29 0 0 1 36 42.78zm-2.33-25.67a12 12 0 0 1 12 12m-12-18a18 18 0 0 1 18 18m-18-24a24 24 0 0 1 24 24"/></symbol><symbol id="quality" viewBox="0 0 1024 1024"><title/><path d="M973.016 840.18l-211.17-211.172 85.412-31.086a15.964 15.964 0 0 0 10.262-17.778L834.64 450.39l65.878-114.106a15.966 15.966 0 0 0-3.564-20.214l-100.932-84.69-22.88-129.756a15.965 15.965 0 0 0-15.724-13.192h-131.76L524.732 3.734a15.968 15.968 0 0 0-20.53 0l-100.93 84.692H271.514a15.965 15.965 0 0 0-15.724 13.192l-22.88 129.754-100.934 84.692a15.966 15.966 0 0 0-3.564 20.214l65.88 114.106-22.88 129.754a15.965 15.965 0 0 0 10.262 17.778l81.798 29.77L50.982 840.18a15.97 15.97 0 0 0-3.7 16.784 15.962 15.962 0 0 0 13.666 10.418l131.054 10.924 10.924 131.052A15.962 15.962 0 0 0 218.834 1024c4.162 0 8.246-1.628 11.294-4.676l281.871-281.871 281.871 281.871a15.972 15.972 0 0 0 16.784 3.7 15.957 15.957 0 0 0 10.416-13.666l10.926-131.05 131.052-10.924a15.97 15.97 0 0 0 9.966-27.204zM231.892 972.4l-9.186-110.21a15.967 15.967 0 0 0-14.586-14.586l-110.21-9.186 198.676-198.676 8.902 3.24 65.878 114.106a15.97 15.97 0 0 0 19.29 7.022l77.854-28.336L231.892 972.4zm295.595-282.593l-7.562-2.75a15.937 15.937 0 0 0-10.92 0l-116.682 42.466-62.086-107.536a15.984 15.984 0 0 0-8.366-7.022l-116.682-42.468 21.564-122.282c.654-3.7-.018-7.508-1.894-10.76l-62.088-107.536 95.124-79.816a15.934 15.934 0 0 0 5.458-9.456l21.562-122.284h124.17c3.756 0 7.39-1.322 10.264-3.736l95.12-79.816 95.12 79.816a15.964 15.964 0 0 0 10.264 3.736h124.172l21.562 122.284a15.959 15.959 0 0 0 5.458 9.456l95.122 79.816-62.086 107.536a15.963 15.963 0 0 0-1.896 10.758l21.564 122.282-116.684 42.47a15.975 15.975 0 0 0-8.366 7.022l-62.084 107.536-109.1-39.708c-.01-.004-.02-.004-.028-.008zm288.395 157.799a15.967 15.967 0 0 0-14.586 14.586l-9.184 110.21L552.666 732.95l85.612 31.162a15.97 15.97 0 0 0 19.29-7.022l65.876-114.106 5.288-1.924 197.36 197.36-110.21 9.186z"/><path d="M512.003 137.042c-140.282 0-254.408 114.126-254.408 254.408s114.128 254.406 254.408 254.406c140.282 0 254.406-114.126 254.406-254.406S652.283 137.042 512.003 137.042zm0 476.879c-122.672 0-222.474-99.802-222.474-222.474s99.802-222.472 222.474-222.472c122.67 0 222.474 99.802 222.474 222.474s-99.804 222.472-222.474 222.472z"/><path d="M695.763 340.603a15.967 15.967 0 0 0-15.186-11.034H562.733l-36.414-112.076a15.967 15.967 0 0 0-30.372 0l-36.416 112.076H341.687a15.969 15.969 0 0 0-9.384 28.886l95.338 69.266-36.416 112.078a15.965 15.965 0 0 0 5.802 17.852c2.798 2.034 6.09 3.05 9.384 3.05s6.586-1.018 9.384-3.05l95.338-69.264 95.336 69.264a15.963 15.963 0 0 0 18.768 0 15.973 15.973 0 0 0 5.802-17.852l-36.416-112.078 95.338-69.266a15.968 15.968 0 0 0 5.802-17.852zm-129.294 68.104a15.97 15.97 0 0 0-5.802 17.852l24.814 76.372-64.966-47.198a15.963 15.963 0 0 0-18.768 0l-64.968 47.2 24.814-76.374a15.961 15.961 0 0 0-5.802-17.85l-64.964-47.202h80.306a15.969 15.969 0 0 0 15.186-11.034l24.814-76.372 24.812 76.372a15.967 15.967 0 0 0 15.186 11.034h80.306l-64.968 47.2z"/></symbol><symbol id="roller" viewBox="0 0 32 32"><title>roller</title><path d="M0 6.667v24C0 31.467.533 32 1.333 32H12c.8 0 1.333-.667 1.333-1.333v-23.2L6.666 0-.001 6.667zm10.667 22.666h-8v-4h8v4zm0-5.333h-8V8h8v16zM3.333 6.667l3.333-3.333 3.333 3.333H3.332zM32 1.333C32 .533 31.467 0 30.667 0H17.334c-.8 0-1.333.533-1.333 1.333v29.333c0 .8.533 1.333 1.333 1.333h13.333c.8 0 1.333-.533 1.333-1.333V1.333zm-2.667 4H24v1.333h5.333v1.333h-2.667v1.333h2.667v1.333h-2.667v1.333h2.667v1.333H24v1.333h5.333v1.333h-2.667v1.333h2.667v1.333h-2.667v1.333h2.667v1.333H24v1.333h5.333v1.333h-2.667v1.333h2.667v4H18.666V2.661h10.667v2.667z"/></symbol><symbol id="ruble" viewBox="0 0 1792 1792"><path d="M1299 565q0-100-65-162t-171-62H743v448h320q106 0 171-62t65-162zm237 0q0 193-126.5 315T1083 1002H743v118h505q14 0 23 9t9 23v128q0 14-9 23t-23 9H743v192q0 14-9.5 23t-22.5 9H544q-14 0-23-9t-9-23v-192H288q-14 0-23-9t-9-23v-128q0-14 9-23t23-9h224v-118H288q-14 0-23-9t-9-23V821q0-13 9-22.5t23-9.5h224V160q0-14 9-23t23-9h539q200 0 326.5 122T1536 565z"/></symbol><symbol id="search" viewBox="0 0 1024 1024"><title>clock</title><path d="M621.668 653.668C577.192 685.36 522.773 704 464 704c-150.221 0-272-121.779-272-272s121.779-272 272-272 272 121.779 272 272c0 75.111-30.445 143.111-79.667 192.333l191.916 191.916c8.802 8.802 8.588 22.915-.249 31.751-8.898 8.898-23.052 8.948-31.751.249L621.668 653.668zM464 672c132.548 0 240-107.452 240-240S596.548 192 464 192 224 299.452 224 432s107.452 240 240 240z"/></symbol><symbol id="services" viewBox="0 0 1024 1024"><title/><path d="M512 302c-66.182 0-120 53.818-120 120s53.818 120 120 120 120-53.818 120-120-53.818-120-120-120z"/><path d="M994 422h-41.58c-11.484-56.074-33.78-109.804-65.45-157.676l28.066-28.096c11.718-11.718 11.718-30.704 0-42.422l-84.844-84.844c-11.718-11.718-30.704-11.718-42.422 0l-28.096 28.066C711.804 105.36 658.074 83.064 602 71.58V30c0-16.582-13.418-30-30-30H452c-16.582 0-30 13.418-30 30v41.58c-56.074 11.484-109.804 33.78-157.676 65.45l-28.096-28.066c-11.718-11.718-30.704-11.718-42.422 0l-84.844 84.842c-11.718 11.718-11.718 30.704 0 42.422l28.066 28.096C105.36 312.196 83.064 365.926 71.58 422H30c-16.582 0-30 13.418-30 30v120c0 16.582 13.418 30 30 30h41.58c11.484 56.074 33.78 109.804 65.45 157.676l-28.066 28.096c-11.718 11.718-11.718 30.704 0 42.422l84.844 84.844c11.718 11.718 30.704 11.718 42.422 0l28.096-28.066c47.872 31.67 101.602 53.964 157.676 65.45V994c0 16.582 13.418 30 30 30h120c16.582 0 30-13.418 30-30v-41.58c56.074-11.484 109.804-33.78 157.676-65.45l28.096 28.066c11.718 11.718 30.704 11.718 42.422 0l84.844-84.844c11.718-11.718 11.718-30.704 0-42.422l-28.066-28.096c31.67-47.872 53.964-101.602 65.45-157.676H994c16.582 0 30-13.418 30-30v-120c0-16.58-13.418-29.998-30-29.998zM512 782c-151.692 0-270-125.094-270-270 0-149.118 120.882-270 270-270s270 120.882 270 270c0 145.136-118.506 270-270 270z"/><path d="M512 542c-71.246 0-133.754 35.944-171.478 90.484C378.568 686.456 441.106 722 512 722s133.432-35.544 171.478-89.516C645.754 577.944 583.246 542 512 542z"/></symbol><symbol id="shield" viewBox="0 0 1024 1024"><title/><path fill="#334141" d="M489.484 47.919c-36.161 20.608-176.756 94.468-334.66 94.468-31.704 0-62.424-2.954-91.57-8.862l-22.448-4.333-1.183 22.844c-.195 5.473-19.733 557.093 449.861 824.246V47.919z"/><path fill="#296dc1" d="M984.461 152.233l-.788-23.237-22.645 4.529c-29.341 5.907-60.061 8.862-91.963 8.862-159.159 0-303.208-74.067-340.196-94.681v928.59c469.507-267.145 455.789-818.589 455.593-824.062z"/></symbol><symbol id="support" viewBox="0 0 1024 1024"><title>clock</title><path fill="none" stroke-width="40.96" stroke-miterlimit="10" d="M901.12 409.6c0-22.61-18.35-40.96-40.96-40.96s-40.96 18.35-40.96 40.96v307.2c0 22.61 18.35 40.96 40.96 40.96s40.96-18.35 40.96-40.96V409.6zM573.44 962.56c22.61 0 40.96-18.35 40.96-40.96s-18.35-40.96-40.96-40.96h-102.4c-22.61 0-40.96 18.35-40.96 40.96s18.35 40.96 40.96 40.96h102.4z"/><path fill="none" stroke-width="40.96" stroke-miterlimit="10" d="M163.84 389.12c0-192.287 155.873-348.16 348.16-348.16s348.16 155.873 348.16 348.16m40.96 20.48c56.566 0 102.4 68.751 102.4 153.6 0 84.808-45.834 153.6-102.4 153.6"/><path fill="none" stroke-width="40.96" stroke-miterlimit="10" d="M122.88 409.6c0-22.61 18.35-40.96 40.96-40.96s40.96 18.35 40.96 40.96v307.2c0 22.61-18.35 40.96-40.96 40.96s-40.96-18.35-40.96-40.96V409.6zm0 0c-56.545 0-102.4 68.751-102.4 153.6 0 84.808 45.855 153.6 102.4 153.6m737.28 40.96c0 102.4-61.44 163.84-163.84 163.84H614.4"/></symbol><symbol id="sync" viewBox="0 0 21.02 21.27"><title/><g data-name="Layer 1" id="Layer_1-2"><path fill="#fff" d="M.51 20.45v-6h6l-6 6z"/><path fill="none" stroke="#fff" stroke-linecap="square" stroke-miterlimit="10" d="M20.52 10.77a10 10 0 0 1-18.7 4.94"/><path fill="#fff" d="M20.51.82v6h-6l6-6z"/><path fill="none" stroke="#fff" stroke-linecap="square" stroke-miterlimit="10" class="cls-2" d="M.5 10.5a10 10 0 0 1 18.7-4.94"/></g></symbol><symbol id="tape-measure" viewBox="0 0 1024 1024"><title/><path d="M1014.552 745.796V434.503c0-4.441-.686-8.727-1.896-12.779 2.042-.465 4.097-.842 6.174-1.052-25.888-144.423-147.404-253.765-293.502-253.765-164.957 0-298.662 139.332-298.662 311.213v225.63H20.077v-50.211c0-5.519-4.492-10.034-10.036-10.034-5.54 0-10.04 4.499-10.04 10.034v193.264c0 4.671 3.208 8.559 7.536 9.681v.342h514.37c1.718.103 3.415.268 5.16.268h396.555c55.442 0 100.381-44.95 100.381-100.392V746.65a51.768 51.768 0 0 1-9.451-.853zm-986.955 90.96V723.822H62.73v55.464h6.701v-55.464h12.446v31.819h6.422v-31.819h15.26v31.819h6.417v-31.819h16.31v31.819h6.417v-31.819h15.26v31.819h6.424v-31.819h12.075v55.464h6.699v-55.464h14.441v31.819h6.422v-31.819h15.254v31.819h6.424v-31.819h16.295v31.819h6.422v-31.819h15.256v31.819h6.422v-31.819h15.122v55.464h6.697v-55.464h12.493v31.819h6.415v-31.819h15.263v31.819h6.415v-31.819h16.31v31.819h6.42v-31.819h15.26v31.819h6.422v-31.819h12.053v55.464h6.697v-55.464h40.988v32.891c0 32.73 15.743 61.736 39.989 80.059l-439.044-.016zM717.786 347.62c69.302 0 125.506 56.181 125.506 125.483 0 69.309-56.204 125.483-125.506 125.483s-125.474-56.175-125.474-125.483c0-69.302 56.172-125.483 125.474-125.483zm-178.18 418.295h-14.222v-42.094h14.222v42.094zm363.914 0H559.68v-56.883h343.84v56.883zm-86.829-530.354l14.691-31.919c4.601 2.122 112.876 52.88 141.628 146.328l-33.601 10.335c-24.057-78.286-121.74-124.279-122.718-124.744zm182.803 504.991c-26.205-13.297-47.571-47.385-58.339-91.804V518.346c10.626-43.854 31.575-77.651 57.327-91.301.637 2.388 1.012 4.883 1.012 7.474v306.033zm-29.868-216.425c-14.132 0-21.756 29.735-21.756 57.727 0 27.975 7.624 57.729 21.756 57.729 14.099 0 21.731-29.753 21.731-57.729.002-27.977-7.63-57.727-21.731-57.727zm0 110.43c-7.925 0-16.75-21.644-16.75-52.69 0-31.07 8.825-52.708 16.75-52.708 7.892 0 16.715 21.638 16.715 52.708.002 31.044-8.823 52.69-16.715 52.69zm2.419-93.028c.534.514 5.452 5.575 7.99 24.727l-4.977.672c-2.283-17.208-6.466-21.731-6.489-21.754l3.476-3.645zm-305.276-68.426c0-28.173 22.83-51.03 51.017-51.03 28.191 0 51.044 22.855 51.044 51.03 0 28.187-22.85 51.035-51.044 51.035-28.187-.011-51.017-22.848-51.017-51.035z"/></symbol><symbol id="tree" viewBox="0 0 590.074 590.073"><path d="M537.804 174.688c0-44.772-33.976-81.597-77.552-86.12-12.23-32.981-43.882-56.534-81.128-56.534-16.304 0-31.499 4.59-44.514 12.422C319.808 17.949 291.513 0 258.991 0c-43.117 0-78.776 31.556-85.393 72.809-3.519-.43-7.076-.727-10.71-.727-47.822 0-86.598 38.767-86.598 86.598 0 2.343.172 4.638.354 6.933-24.25 15.348-40.392 42.333-40.392 73.153 0 27.244 12.604 51.513 32.273 67.387-.086 1.559-.239 3.107-.239 4.686 0 47.822 38.767 86.598 86.598 86.598 14.334 0 27.817-3.538 39.723-9.696 16.495 11.848 40.115 26.67 51.551 23.715 0 0 4.255 65.905 3.337 82.64-1.75 31.843-11.303 67.291-18.025 95.979h104.117s-15.348-63.954-16.018-85.307c-.669-21.354 6.675-60.675 6.675-60.675l36.118-37.36c13.903 9.505 30.695 14.908 48.807 14.908 44.771 0 81.597-34.062 86.12-77.639 32.98-12.23 56.533-43.968 56.533-81.214 0-21.994-8.262-41.999-21.765-57.279 3.653-9.583 5.747-19.948 5.747-30.821zM214.611 373.444a86.984 86.984 0 0 0 17.212-22.969l17.002 35.62c-.009.001-9.256 4.084-34.214-12.651zm63.572 21.994c-8.798 1.597-23.782-25.494-34.416-47.517 11.791 6.015 25.102 9.477 39.254 9.477 3.634 0 7.201-.296 10.72-.736-2.735 17.624-7.554 37.313-15.558 38.776zm37.38 17.337c-20.35 5.651-8.167-36.501-2.334-60.904 4.218-1.568 8.301-3.413 12.183-5.604 2.343 17.786 10.069 33.832 21.516 46.521-9.917 8.809-21.335 17.204-31.365 19.987z"/></symbol><symbol id="truck" viewBox="0 0 1024 1024"><title/><path d="M512 64c-137.035.01-250.157 7.581-267.448 17.384l-.145.101c-29.683 10.388-52.367 77.372-52.406 158.505v40.011h-8.168c-.901-1.934-1.989-3.585-3.257-4.99l-.017-.018c3.336-3.676 5.433-9.027 5.441-14.99v-20.002c-.001-11.045-7.164-19.999-16-20h-32c-8.836.001-15.999 8.955-16 20v20c.005 5.971 2.102 11.328 5.424 14.989l.017.019c-3.336 3.676-5.433 9.027-5.441 14.99v100.002c.001 11.045 7.164 19.999 16 20h32c5.883-.01 11.021-3.987 13.795-9.906l.041-.094H192v180c.018 7.355 7.973 13.778 19.811 17.246l.189.051v23.355c-17.378 2.298-29.984 10.086-30 19.347v200.001c.016 29.422 7.972 55.12 19.811 68.991l.189.204v34.367c0 9.078 7.359 16.438 16.438 16.438h67.125c9.078 0 16.438-7.359 16.438-16.438V920h420v23.563c0 9.078 7.359 16.438 16.438 16.438h67.125c9.078 0 16.438-7.359 16.438-16.438v-34.395c12.024-14.071 19.978-39.757 20-69.162V640c-.024-9.259-12.627-17.042-29.721-19.308l-.279-.031v-23.367c12.025-3.518 19.979-9.94 20-17.291V400.001h8.164c2.815 6.013 7.953 9.99 13.835 10h32.001c8.836-.001 15.999-8.955 16-20v-100c-.009-5.965-2.105-11.316-5.424-14.973l-.017-.019c3.339-3.68 5.436-9.037 5.441-15.007v-20.001c-.001-11.045-7.164-19.999-16-20h-32c-8.836.001-15.999 8.955-16 20v20c.009 5.965 2.105 11.316 5.424 14.973l.017.019a19.868 19.868 0 0 0-3.233 4.913l-.041.095h-8.168v-40c-.026-81.555-22.93-148.823-52.52-158.636l-.293-.079c-18.655-9.808-131.128-17.273-267.17-17.285h-.017zM237.688 180h548.594a20.002 20.002 0 0 1 19.621 16.129c4.023 20.379 6.072 42.393 6.098 64.719V400c-.001 11.045-8.955 19.999-20 20h-560c-11.045-.001-19.999-8.955-20-20V260.855c.014-22.319 2.053-44.33 6.063-64.715a20.003 20.003 0 0 1 19.625-16.141zM262 620h42.855a10.001 10.001 0 0 1 9.988 9.453l7.141 130c.313 5.729-4.247 10.546-9.984 10.547h-50c-5.523-.001-9.999-4.477-10-10V630c.001-5.523 4.477-9.999 10-10zm457.145 0H762c5.523.001 9.999 4.477 10 10v130c-.001 5.523-4.477 9.999-10 10h-50c-5.737-.001-10.298-4.818-9.984-10.547l7.141-130a10.001 10.001 0 0 1 9.988-9.453zM347 644h330a5 5 0 0 1 5 5v6a5 5 0 0 1-5 5H347a5 5 0 0 1-5-5v-6a5 5 0 0 1 5-5zm2 36h326a5 5 0 0 1 5 5v6a5 5 0 0 1-5 5H349a5 5 0 0 1-5-5v-6a5 5 0 0 1 5-5zm2 36h322a5 5 0 0 1 5 5v6a5 5 0 0 1-5 5H351a5 5 0 0 1-5-5v-6a5 5 0 0 1 5-5zm2 36h318a5 5 0 0 1 5 5v6a5 5 0 0 1-5 5H353a5 5 0 0 1-5-5v-6a5 5 0 0 1 5-5z"/></symbol><symbol id="visa" viewBox="0 0 504 504"><path fill="#3c58bf" d="M184.8 324.4l25.6-144h40l-24.8 144z"/><path fill="#293688" d="M184.8 324.4l32.8-144h32.8l-24.8 144z"/><path d="M370.4 182c-8-3.2-20.8-6.4-36.8-6.4-40 0-68.8 20-68.8 48.8 0 21.6 20 32.8 36 40s20.8 12 20.8 18.4c0 9.6-12.8 14.4-24 14.4-16 0-24.8-2.4-38.4-8l-5.6-2.4-5.6 32.8c9.6 4 27.2 8 45.6 8 42.4 0 70.4-20 70.4-50.4 0-16.8-10.4-29.6-34.4-40-14.4-7.2-23.2-11.2-23.2-18.4 0-6.4 7.2-12.8 23.2-12.8 13.6 0 23.2 2.4 30.4 5.6l4 1.6 6.4-31.2z" fill="#3c58bf"/><path d="M370.4 182c-8-3.2-20.8-6.4-36.8-6.4-40 0-61.6 20-61.6 48.8 0 21.6 12.8 32.8 28.8 40s20.8 12 20.8 18.4c0 9.6-12.8 14.4-24 14.4-16 0-24.8-2.4-38.4-8l-5.6-2.4-5.6 32.8c9.6 4 27.2 8 45.6 8 42.4 0 70.4-20 70.4-50.4 0-16.8-10.4-29.6-34.4-40-14.4-7.2-23.2-11.2-23.2-18.4 0-6.4 7.2-12.8 23.2-12.8 13.6 0 23.2 2.4 30.4 5.6l4 1.6 6.4-31.2z" fill="#293688"/><path d="M439.2 180.4c-9.6 0-16.8.8-20.8 10.4l-60 133.6h43.2l8-24h51.2l4.8 24H504l-33.6-144h-31.2zm-18.4 96c2.4-7.2 16-42.4 16-42.4s3.2-8.8 5.6-14.4l2.4 13.6s8 36 9.6 44h-33.6v-.8z" fill="#3c58bf"/><path d="M448.8 180.4c-9.6 0-16.8.8-20.8 10.4l-69.6 133.6h43.2l8-24h51.2l4.8 24H504l-33.6-144h-21.6zm-28 96c3.2-8 16-42.4 16-42.4s3.2-8.8 5.6-14.4l2.4 13.6s8 36 9.6 44h-33.6v-.8z" fill="#293688"/><path d="M111.2 281.2l-4-20.8c-7.2-24-30.4-50.4-56-63.2l36 128h43.2l64.8-144H152l-40.8 100z" fill="#3c58bf"/><path d="M111.2 281.2l-4-20.8c-7.2-24-30.4-50.4-56-63.2l36 128h43.2l64.8-144H160l-48.8 100z" fill="#293688"/><path d="M0 180.4l7.2 1.6c51.2 12 86.4 42.4 100 78.4l-14.4-68c-2.4-9.6-9.6-12-18.4-12H0z" fill="#ffbc00"/><path d="M0 180.4c51.2 12 93.6 43.2 107.2 79.2l-13.6-56.8c-2.4-9.6-10.4-15.2-19.2-15.2L0 180.4z" fill="#f7981d"/><path d="M0 180.4c51.2 12 93.6 43.2 107.2 79.2l-9.6-31.2c-2.4-9.6-5.6-19.2-16.8-23.2L0 180.4z" fill="#ed7c00"/><path d="M151.2 276.4L124 249.2l-12.8 30.4-3.2-20c-7.2-24-30.4-50.4-56-63.2l36 128h43.2l20-48zm74.4 48l-34.4-35.2-6.4 35.2zm92-49.6c3.2 3.2 4.8 5.6 4 8.8 0 9.6-12.8 14.4-24 14.4-16 0-24.8-2.4-38.4-8l-5.6-2.4-5.6 32.8c9.6 4 27.2 8 45.6 8 25.6 0 46.4-7.2 58.4-20l-34.4-33.6zm46.4 49.6h37.6l8-24h51.2l4.8 24H504L490.4 266l-48-46.4 2.4 12.8s8 36 9.6 44h-33.6c3.2-8 16-42.4 16-42.4s3.2-8.8 5.6-14.4" fill="#051244"/></symbol><symbol id="wallet" viewBox="0 0 1024 1024"><title/><path d="M1002.667 853.333C1002.667 912.256 954.923 960 896 960H128c-58.923 0-106.667-47.744-106.667-106.667V234.666c0-47.125 38.208-85.333 85.333-85.333h430.315L709.76 86.741c10.944-3.989 23.061 1.664 27.051 12.565l18.197 50.027H832c47.125 0 85.333 38.208 85.333 85.333v42.667c47.125 0 85.333 38.208 85.333 85.333v490.667zM106.667 192C83.115 192 64 211.115 64 234.667s19.115 42.667 42.667 42.667h77.525c.277-.107.448-.341.725-.448L419.2 192.001H106.667zm620.33 3.861l-22.656-62.379h-.021L307.285 277.333h449.323l-29.611-81.472zm147.67 38.806C874.667 211.115 855.552 192 832 192h-61.504l31.019 85.333h73.152v-42.667zM917.333 320H106.666c-15.616 0-30.08-4.501-42.667-11.84v545.173c0 35.349 28.672 64 64 64h768c35.349 0 64-28.651 64-64V704h-85.333c-47.125 0-85.333-38.208-85.333-85.333s38.208-85.333 85.333-85.333h85.333V362.667c0-23.552-19.115-42.667-42.667-42.667zM960 661.333V576h-85.333C851.115 576 832 595.115 832 618.667s19.115 42.667 42.667 42.667H960zm-85.333-64h42.667V640h-42.667v-42.667z"/></symbol><symbol id="watch" viewBox="0 0 1024 1024"><title/><path d="M592.896 623.445l159.795-220.911c4.898-6.775 4.164-16.128-1.775-22.067-5.939-5.905-15.292-6.656-22.067-1.775L507.904 538.538c-14.404 10.479-23.467 26.675-24.849 44.442s5.052 35.157 17.63 47.735c11.486 11.486 26.743 17.818 42.957 17.818 19.422 0 37.82-9.37 49.254-25.088z"/><path d="M930.714 333.892c-.171-.358-.171-.734-.358-1.092-.205-.341-.529-.529-.751-.853-17.254-29.594-37.666-57.122-60.843-82.074l36.642-36.642 24.132 24.132 72.397-72.397-72.397-72.414-72.414 72.414 24.149 24.132-36.642 36.642a463.41 463.41 0 0 0-82.074-60.86c-.324-.222-.512-.546-.853-.751-.358-.205-.734-.188-1.092-.375-52.787-30.413-112.094-50.671-175.309-58.095V85.333h25.6c23.535 0 42.667-19.132 42.667-42.667S634.402-.001 610.867-.001h-153.6c-23.535 0-42.667 19.132-42.667 42.667s19.132 42.667 42.667 42.667h25.6v19.729c-18.432 1.963-36.83 4.966-55.023 9.131-9.182 2.099-14.933 11.264-12.817 20.446 2.099 9.182 11.264 14.916 20.446 12.817a433.811 433.811 0 0 1 48.811-8.277l16.913-1.28a592.923 592.923 0 0 1 15.787-.973v33.741c0 9.438 7.629 17.067 17.067 17.067s17.067-7.629 17.067-17.067v-33.621c64.188 2.953 124.672 20.19 178.449 48.555l-16.828 29.15c-4.71 8.175-1.911 18.603 6.246 23.313a16.93 16.93 0 0 0 8.516 2.287 17.076 17.076 0 0 0 14.797-8.533l16.777-29.082a429.969 429.969 0 0 1 132.642 132.642l-29.065 16.777c-8.124 4.71-10.923 15.138-6.195 23.313 3.174 5.478 8.892 8.533 14.797 8.533a16.93 16.93 0 0 0 8.516-2.287l29.133-16.828c28.757 54.545 46.046 116.019 48.623 181.231h-33.707c-9.438 0-17.067 7.629-17.067 17.067s7.629 17.067 17.067 17.067h33.707c-2.577 65.212-19.866 126.686-48.623 181.231l-29.133-16.828c-8.158-4.727-18.603-1.946-23.313 6.246-4.71 8.175-1.911 18.603 6.246 23.313l29.065 16.777a429.969 429.969 0 0 1-132.642 132.642l-16.777-29.065c-4.727-8.192-15.189-10.991-23.313-6.246-8.175 4.71-10.974 15.155-6.246 23.313l16.828 29.133c-53.777 28.365-114.261 45.602-178.449 48.555v-33.587c0-9.438-7.629-17.067-17.067-17.067s-17.067 7.629-17.067 17.067v33.724c-27.255-.939-54.596-4.352-81.51-10.53-9.182-2.133-18.347 3.635-20.446 12.817-2.116 9.182 3.635 18.347 12.817 20.446 34.065 7.851 68.864 11.81 103.39 11.81.836 0 1.638-.051 2.475-.068.119 0 .205.068.307.068.137 0 .256-.085.393-.085 82.039-.563 159.01-22.716 225.604-60.979.529-.239 1.092-.358 1.604-.666.341-.205.529-.529.853-.751 68.932-40.175 126.532-97.707 166.793-166.588.324-.461.734-.819 1.024-1.331.205-.358.188-.734.358-1.092 38.98-67.584 61.389-145.852 61.389-229.308s-22.409-161.724-61.372-229.308z"/><path d="M380.467 221.867h-85.333c-18.842 0-34.133 15.292-34.133 34.133s15.292 34.133 34.133 34.133h85.333c18.842 0 34.133-15.292 34.133-34.133s-15.292-34.133-34.133-34.133zm0 119.466H209.8c-18.842 0-34.133 15.292-34.133 34.133s15.292 34.133 34.133 34.133h170.667c18.842 0 34.133-15.292 34.133-34.133s-15.292-34.133-34.133-34.133zm0 119.467h-256c-18.842 0-34.133 15.292-34.133 34.133s15.292 34.133 34.133 34.133h256c18.842 0 34.133-15.292 34.133-34.133S399.308 460.8 380.467 460.8zm0 119.467H56.2c-18.842 0-34.133 15.292-34.133 34.133s15.292 34.133 34.133 34.133h324.267c18.842 0 34.133-15.292 34.133-34.133s-15.292-34.133-34.133-34.133zm0 119.466H158.6c-18.842 0-34.133 15.292-34.133 34.133s15.292 34.133 34.133 34.133h221.867c18.842 0 34.133-15.292 34.133-34.133s-15.292-34.133-34.133-34.133zm0 119.467H261c-18.842 0-34.133 15.292-34.133 34.133s15.292 34.133 34.133 34.133h119.467c18.842 0 34.133-15.292 34.133-34.133S399.308 819.2 380.467 819.2z"/></symbol></svg>