<?xml version="1.0" encoding="utf-8"?>
<!-- Generator: Adobe Illustrator 21.1.0, SVG Export Plug-In . SVG Version: 6.00 Build 0)  -->
<svg version="1.1" id="Logo" xmlns="http://www.w3.org/2000/svg" xmlns:xlink="http://www.w3.org/1999/xlink" x="0px" y="0px"
	 viewBox="0 0 264.3 74.5" style="enable-background:new 0 0 264.3 74.5;" xml:space="preserve">
<style type="text/css">
	.st0{fill:#319B42;}
	.st1{fill:url(#SVGID_1_);}
</style>
<g>
	<g>
		<path class="st0" d="M147.2,7.9l-16.7,36.2h-1.7V0H105v74.5h20.1c5.3,0,10.1-3.1,12.3-7.9l16.7-36.2h1.7v44.1h23.7V0h-20.1
			C154.2,0,149.4,3.1,147.2,7.9z"/>
		<path class="st0" d="M58.2,9.8l-9.9,34.3h-1.7L36.7,9.8C35,4,29.7,0,23.7,0H0v74.5h23.7V30.5h1.7L39,74.5h16.9l13.6-44.1h1.7v44.1
			h23.7V0H71.2C65.2,0,59.8,4,58.2,9.8z"/>
		<path class="st0" d="M189.8,33.9v40.7h23.7V50.8h25.5c11.1,0,20.4-7.1,23.9-16.9H189.8z"/>
	</g>
	<linearGradient id="SVGID_1_" gradientUnits="userSpaceOnUse" x1="186.3672" y1="15.2482" x2="264.3026" y2="15.2482">
		<stop  offset="0" style="stop-color:#00A3E1"/>
		<stop  offset="0.3042" style="stop-color:#009ADD"/>
		<stop  offset="0.7987" style="stop-color:#0082D4"/>
		<stop  offset="1" style="stop-color:#0076CF"/>
	</linearGradient>
	<path class="st1" d="M238.9,0h-52.5c3.2,17.3,18.4,30.5,36.6,30.5h40.8c0.3-1.6,0.5-3.3,0.5-5.1C264.3,11.4,252.9,0,238.9,0z"/>
</g>
</svg>
