<?xml version="1.0" encoding="utf-8"?>
<!-- Generated by IcoMoon.io -->
<!DOCTYPE svg PUBLIC "-//W3C//DTD SVG 1.1//EN" "http://www.w3.org/Graphics/SVG/1.1/DTD/svg11.dtd">
<svg version="1.1" xmlns="http://www.w3.org/2000/svg" xmlns:xlink="http://www.w3.org/1999/xlink" width="32" height="32" viewBox="0 0 32 32" fill="#999999">
<path d="M12.957 26.102c3.189 0 6.103-1.172 8.354-3.098l8.678 8.678c0.196 0.195 0.452 0.294 0.709 0.294s0.512-0.098 0.709-0.294c0.196-0.197 0.294-0.452 0.294-0.709s-0.098-0.514-0.294-0.709l-8.678-8.678c1.927-2.25 3.099-5.165 3.099-8.354 0-7.097-5.774-12.87-12.87-12.87-7.097 0-12.871 5.774-12.871 12.87s5.774 12.87 12.871 12.87zM12.957 2.368c5.99 0 10.864 4.873 10.864 10.864s-4.875 10.864-10.864 10.864c-5.99 0-10.865-4.874-10.865-10.864s4.875-10.864 10.865-10.864z"></path>
</svg>
