<svg version="1" xmlns="http://www.w3.org/2000/svg" width="1077.333" height="1077.333" viewBox="0 0 808.000000 808.000000"><path d="M204.2 275.9C1.7 403.5.4 404.3 3 403.5c.8-.2 90.6-27.2 199.5-59.9 109-32.7 199.2-59.7 200.6-60.1 1.9-.5 58 16.1 200 59 230.2 69.7 203.5 61.7 202.3 60.6-.8-.8-401.2-251.3-402.4-251.8-.3-.1-89.7 55.9-198.8 124.6z"/><path d="M2.5 405.8c.6.5 91.1 57.5 201.3 126.6L404 658l201-126.2c110.6-69.3 200.9-126.2 200.8-126.4-.2-.1-89.8 23.6-199.3 52.8-109.4 29.1-199.9 53-201 53-1.5 0-391-102.5-402-105.8-1.3-.4-1.7-.3-1 .4z"/></svg>