<?xml version="1.0" standalone="no"?>
<!DOCTYPE svg PUBLIC "-//W3C//DTD SVG 20010904//EN"
 "http://www.w3.org/TR/2001/REC-SVG-20010904/DTD/svg10.dtd">
<svg version="1.0" xmlns="http://www.w3.org/2000/svg"
 width="16.000000pt" height="16.000000pt" viewBox="0 0 16.000000 16.000000"
 preserveAspectRatio="xMidYMid meet">
<metadata>
Created by potrace 1.11, written by Peter Selinger 2001-2013
</metadata>
<g transform="translate(0.000000,16.000000) scale(0.007111,-0.007111)"
fill="#000000" stroke="none">
<path d="M770 1709 c-705 -530 -704 -529 -735 -554 -11 -9 18 3 65 27 217 111
462 199 675 243 133 27 154 29 325 30 160 0 238 -6 310 -25 19 -5 46 -11 60
-14 164 -29 467 -137 689 -245 36 -17 68 -31 73 -31 5 0 -6 20 -24 44 -18 24
-107 144 -198 267 -389 526 -561 754 -568 756 -4 1 -306 -223 -672 -498z"/>
<path d="M1062 1402 c-7 -2 -12 -23 -12 -56 l0 -52 46 2 c69 4 74 8 70 54 -2
22 -5 42 -7 45 -6 6 -83 12 -97 7z m86 -29 c2 -9 -9 -13 -37 -13 -30 0 -41 4
-41 16 0 11 9 14 37 12 20 -2 38 -9 41 -15z m0 -46 c3 -14 -5 -17 -43 -17 -41
0 -45 2 -36 18 13 24 75 23 79 -1z"/>
<path d="M952 1388 c-10 -13 -42 -85 -42 -95 0 -3 6 0 13 6 19 15 87 25 87 12
0 -6 7 -11 15 -11 10 0 6 14 -17 50 -33 53 -39 57 -56 38z m20 -59 c-15 -3
-28 -5 -29 -4 -2 1 3 15 9 33 l12 31 18 -27 c18 -27 18 -27 -10 -33z"/>
<path d="M1192 1350 c-1 -28 2 -50 7 -50 5 0 8 9 6 20 -3 18 2 20 46 20 46 0
49 -1 49 -27 0 -42 14 -17 17 32 2 24 -1 46 -7 50 -6 4 -10 -4 -10 -19 0 -27
2 -26 -82 -17 -5 1 -8 10 -8 21 0 43 -15 17 -18 -30z"/>
<path d="M791 1382 c-21 -3 -23 -8 -18 -41 2 -21 0 -46 -5 -56 -8 -13 -7 -16
3 -13 9 3 15 23 17 50 3 44 4 46 38 50 18 2 35 2 35 -2 1 -3 3 -21 5 -40 2
-19 8 -38 14 -44 6 -6 8 2 6 20 -2 16 -4 41 -5 56 -1 29 -9 31 -90 20z"/>
<path d="M1344 1373 c2 -10 0 -30 -5 -45 -9 -34 3 -44 62 -47 43 -2 47 0 51
24 5 21 1 28 -19 36 -13 5 -35 9 -49 9 -17 0 -24 5 -24 20 0 11 -4 20 -9 20
-5 0 -8 -8 -7 -17z m89 -52 c18 -18 -3 -30 -41 -24 -45 7 -44 6 -36 28 5 13
14 16 38 11 17 -4 34 -10 39 -15z"/>
<path d="M1479 1353 c0 -15 -3 -40 -5 -55 -3 -16 0 -28 6 -28 5 0 11 10 11 23
1 12 3 34 5 49 1 15 -1 30 -7 33 -5 4 -9 -6 -10 -22z"/>
<path d="M668 1363 c-14 -2 -32 -11 -38 -18 -16 -19 -4 -81 17 -89 37 -14 120
20 99 41 -4 4 -11 2 -15 -5 -12 -19 -68 -33 -79 -19 -20 26 -20 57 -2 67 25
13 70 13 70 -1 0 -5 5 -7 12 -3 7 5 5 11 -7 21 -11 7 -21 12 -24 12 -3 -1 -18
-4 -33 -6z"/>
<path d="M1525 1357 c-3 -7 -8 -30 -13 -53 l-9 -41 48 -10 c27 -5 49 -6 49 -2
0 4 -15 11 -32 14 -18 4 -36 9 -40 11 -11 7 2 33 15 29 39 -12 67 -14 67 -6 0
5 -18 12 -40 16 -39 7 -50 18 -30 30 5 3 26 2 45 -4 21 -5 35 -6 35 0 0 5 -3
9 -7 9 -5 0 -25 4 -46 9 -27 7 -40 6 -42 -2z"/>
<path d="M694 1202 c-11 -7 -22 -30 -69 -145 -15 -37 -31 -70 -36 -73 -5 -3
-9 -11 -9 -17 0 -9 34 -12 119 -12 117 0 130 4 105 32 -6 6 -28 56 -49 110
-42 109 -45 115 -61 105z m46 -217 c0 0 -25 0 -55 -1 -30 0 -55 3 -55 8 0 4 8
29 18 55 11 26 22 57 26 68 6 16 14 5 37 -55 16 -41 29 -75 29 -75z"/>
<path d="M853 1197 c-4 -7 -7 -183 -4 -224 1 -16 88 -18 126 -3 50 19 54 110
4 110 -21 0 -21 1 5 25 14 13 26 33 26 44 0 24 -25 51 -48 52 -73 4 -105 3
-109 -4z m100 -39 c8 -29 -9 -58 -33 -58 -17 0 -20 7 -20 40 0 35 3 40 24 40
16 0 26 -7 29 -22z m-9 -94 c28 -28 12 -84 -24 -84 -17 0 -20 7 -20 43 0 59
14 72 44 41z"/>
<path d="M1065 1200 c-1 -3 -3 -58 -3 -122 l-1 -118 70 0 c54 0 69 3 69 15 0
11 -10 14 -40 11 -22 -2 -41 1 -41 5 -9 64 0 84 40 84 46 0 42 19 -4 25 -39 5
-40 6 -40 43 l-1 38 43 -4 c31 -3 43 0 43 10 0 7 -6 13 -12 14 -50 4 -120 3
-123 -1z"/>
<path d="M1259 1201 c-12 -5 -14 -28 -14 -123 l0 -118 27 0 c27 0 28 2 28 53
0 52 0 53 32 55 64 5 98 66 61 111 -18 21 -101 35 -134 22z m89 -58 c3 -31
-22 -68 -39 -58 -5 4 -9 28 -9 55 0 47 1 49 23 41 15 -6 23 -18 25 -38z"/>
<path d="M1605 1166 c-16 -22 -40 -53 -53 -67 -12 -14 -29 -34 -37 -45 -17
-22 -16 -24 -19 81 -1 56 -2 60 -27 63 l-25 3 0 -121 c-1 -144 8 -151 76 -59
24 33 54 69 66 80 l21 20 -1 -78 c-1 -78 -1 -78 27 -81 l27 -3 0 119 c0 138
-9 153 -55 88z"/>
<path d="M133 951 c191 -257 594 -798 635 -853 19 -26 39 -45 44 -41 8 4 178
130 248 183 58 44 617 463 638 478 13 9 32 24 42 32 10 8 124 94 253 190 129
96 234 176 233 177 -1 2 -32 -13 -68 -32 -180 -96 -423 -187 -623 -235 -110
-26 -146 -33 -245 -45 -42 -5 -221 -6 -270 -1 -72 7 -146 18 -190 28 -25 5
-54 11 -65 13 -72 13 -251 67 -401 123 -82 31 -112 44 -270 117 l-92 43 131
-177z"/>
</g>
</svg>
